
<global>
amp_veltrack=0
ampeg_release=0.50
xf_cccurve=gain
xfin_hicc1=127
xfout_hicc1=127
xfout_locc1=127
</global>

<group>
group_label=RR1
seq_length=8
seq_position=1

<region>
hivel=127
key=C#6
lovel=91
offset=260
sample=Clarinet_staccatissimo_FF_C#6_RR1.opus
</region>

<region>
hivel=127
key=C6
lovel=91
sample=Clarinet_staccatissimo_FF_C6_RR1.opus
</region>

<region>
hivel=127
key=D#6
lovel=91
sample=Clarinet_staccatissimo_FF_D#6_RR1.opus
</region>

<region>
hivel=127
key=D6
lovel=91
offset=736
sample=Clarinet_staccatissimo_FF_D6_RR1.opus
</region>

<region>
hivel=127
key=E6
lovel=91
offset=474
sample=Clarinet_staccatissimo_FF_E6_RR1.opus
</region>

<region>
hivel=127
key=F#6
lovel=91
offset=1148
sample=Clarinet_staccatissimo_FF_F#6_RR1.opus
</region>

<region>
hivel=127
key=F6
lovel=91
offset=685
sample=Clarinet_staccatissimo_FF_F6_RR1.opus
</region>

<region>
hikey=C7
hivel=127
lokey=G6
lovel=91
offset=503
pitch_keycenter=G6
sample=Clarinet_staccatissimo_FF_G6_RR1.opus
</region>

<region>
hivel=127
key=A#5
lovel=91
offset=1359
sample=Clarinet_staccatissimo_FF_A#5_RR1.opus
</region>

<region>
hivel=127
key=A5
lovel=91
offset=270
sample=Clarinet_staccatissimo_FF_A5_RR1.opus
</region>

<region>
hivel=127
key=B5
lovel=91
offset=2136
sample=Clarinet_staccatissimo_FF_B5_RR1.opus
</region>

<region>
hivel=127
key=F#5
lovel=91
offset=849
sample=Clarinet_staccatissimo_FF_F#5_RR1.opus
</region>

<region>
hivel=127
key=F5
lovel=91
offset=1966
sample=Clarinet_staccatissimo_FF_F5_RR1.opus
</region>

<region>
hivel=127
key=G#5
lovel=91
offset=551
sample=Clarinet_staccatissimo_FF_G#5_RR1.opus
</region>

<region>
hivel=127
key=G5
lovel=91
offset=2052
sample=Clarinet_staccatissimo_FF_G5_RR1.opus
</region>

<region>
hivel=127
key=B4
lovel=91
offset=702
sample=Clarinet_staccatissimo_FF_B4_RR1.opus
</region>

<region>
hivel=127
key=C#5
lovel=91
offset=656
sample=Clarinet_staccatissimo_FF_C#5_RR1.opus
</region>

<region>
hivel=127
key=C5
lovel=91
offset=313
sample=Clarinet_staccatissimo_FF_C5_RR1.opus
</region>

<region>
hivel=127
key=D#5
lovel=91
offset=571
sample=Clarinet_staccatissimo_FF_D#5_RR1.opus
</region>

<region>
hivel=127
key=D5
lovel=91
offset=1646
sample=Clarinet_staccatissimo_FF_D5_RR1.opus
</region>

<region>
hivel=127
key=E5
lovel=91
offset=823
sample=Clarinet_staccatissimo_FF_E5_RR1.opus
</region>

<region>
hivel=127
key=A#4
lovel=91
offset=253
sample=Clarinet_staccatissimo_FF_A#4_RR1.opus
</region>

<region>
hivel=127
key=A4
lovel=91
offset=746
sample=Clarinet_staccatissimo_FF_A4_RR1.opus
</region>

<region>
hivel=127
key=F#4
lovel=91
offset=197
sample=Clarinet_staccatissimo_FF_F#4_RR1.opus
</region>

<region>
hivel=127
key=G#4
lovel=91
offset=1159
sample=Clarinet_staccatissimo_FF_G#4_RR1.opus
</region>

<region>
hivel=127
key=G4
lovel=91
offset=708
sample=Clarinet_staccatissimo_FF_G4_RR1.opus
</region>

<region>
hivel=127
key=C#4
lovel=91
offset=896
sample=Clarinet_staccatissimo_FF_C#4_RR1.opus
</region>

<region>
hivel=127
key=C4
lovel=91
offset=778
sample=Clarinet_staccatissimo_FF_C4_RR1.opus
</region>

<region>
hivel=127
key=D#4
lovel=91
offset=573
sample=Clarinet_staccatissimo_FF_D#4_RR1.opus
</region>

<region>
hivel=127
key=D4
lovel=91
offset=656
sample=Clarinet_staccatissimo_FF_D4_RR1.opus
</region>

<region>
hivel=127
key=E4
lovel=91
offset=373
sample=Clarinet_staccatissimo_FF_E4_RR1.opus
</region>

<region>
hivel=127
key=F4
lovel=91
offset=1130
sample=Clarinet_staccatissimo_FF_F4_RR1.opus
</region>

<region>
hivel=127
key=A#3
lovel=91
offset=982
sample=Clarinet_staccatissimo_FF_A#3_RR1.opus
</region>

<region>
hivel=127
key=A3
lovel=91
offset=2575
sample=Clarinet_staccatissimo_FF_A3_RR1.opus
</region>

<region>
hivel=127
key=B3
lovel=91
offset=2037
sample=Clarinet_staccatissimo_FF_B3_RR1.opus
</region>

<region>
hivel=127
key=G#3
lovel=91
offset=1126
sample=Clarinet_staccatissimo_FF_G#3_RR1.opus
</region>

<region>
hivel=127
key=G3
lovel=91
offset=1501
sample=Clarinet_staccatissimo_FF_G3_RR1.opus
</region>

<region>
hivel=90
key=D#6
lovel=46
offset=5
sample=Clarinet_staccatissimo_MF_D#6_RR1.opus
</region>

<region>
hivel=90
key=D6
lovel=46
offset=647
sample=Clarinet_staccatissimo_MF_D6_RR1.opus
</region>

<region>
hivel=90
key=E6
lovel=46
offset=1099
sample=Clarinet_staccatissimo_MF_E6_RR1.opus
</region>

<region>
hivel=90
key=F#6
lovel=46
offset=966
sample=Clarinet_staccatissimo_MF_F#6_RR1.opus
</region>

<region>
hivel=90
key=F6
lovel=46
offset=620
sample=Clarinet_staccatissimo_MF_F6_RR1.opus
</region>

<region>
hikey=C7
hivel=90
lokey=G6
lovel=46
offset=488
pitch_keycenter=G6
sample=Clarinet_staccatissimo_MF_G6_RR1.opus
</region>

<region>
hivel=90
key=A#5
lovel=46
offset=1008
sample=Clarinet_staccatissimo_MF_A#5_RR1.opus
</region>

<region>
hivel=90
key=A5
lovel=46
offset=1512
sample=Clarinet_staccatissimo_MF_A5_RR1.opus
</region>

<region>
hivel=90
key=B5
lovel=46
offset=2428
sample=Clarinet_staccatissimo_MF_B5_RR1.opus
</region>

<region>
hivel=90
key=C#6
lovel=46
offset=705
sample=Clarinet_staccatissimo_MF_C#6_RR1.opus
</region>

<region>
hivel=90
key=C6
lovel=46
offset=552
sample=Clarinet_staccatissimo_MF_C6_RR1.opus
</region>

<region>
hivel=90
key=G#5
lovel=46
offset=1453
sample=Clarinet_staccatissimo_MF_G#5_RR1.opus
</region>

<region>
hivel=90
key=G5
lovel=46
offset=2170
sample=Clarinet_staccatissimo_MF_G5_RR1.opus
</region>

<region>
hivel=90
key=C#5
lovel=46
offset=12521
sample=Clarinet_staccatissimo_MF_C#5_RR1.opus
</region>

<region>
hivel=90
key=D#5
lovel=46
offset=1357
sample=Clarinet_staccatissimo_MF_D#5_RR1.opus
</region>

<region>
hivel=90
key=D5
lovel=46
offset=496
sample=Clarinet_staccatissimo_MF_D5_RR1.opus
</region>

<region>
hivel=90
key=E5
lovel=46
offset=1351
sample=Clarinet_staccatissimo_MF_E5_RR1.opus
</region>

<region>
hivel=90
key=F#5
lovel=46
offset=1247
sample=Clarinet_staccatissimo_MF_F#5_RR1.opus
</region>

<region>
hivel=90
key=F5
lovel=46
offset=1260
sample=Clarinet_staccatissimo_MF_F5_RR1.opus
</region>

<region>
hivel=90
key=B4
lovel=46
offset=1253
sample=Clarinet_staccatissimo_MF_B4_RR1.opus
</region>

<region>
hivel=90
key=C5
lovel=46
offset=409
sample=Clarinet_staccatissimo_MF_C5_RR1.opus
</region>

<region>
hivel=90
key=A#4
lovel=46
offset=610
sample=Clarinet_staccatissimo_MF_A#4_RR1.opus
</region>

<region>
hivel=90
key=A4
lovel=46
offset=934
sample=Clarinet_staccatissimo_MF_A4_RR1.opus
</region>

<region>
hivel=90
key=G#4
lovel=46
offset=884
sample=Clarinet_staccatissimo_MF_G#4_RR1.opus
</region>

<region>
hivel=90
key=G4
lovel=46
offset=494
sample=Clarinet_staccatissimo_MF_G4_RR1.opus
</region>

<region>
hivel=90
key=F#4
lovel=46
offset=432
sample=Clarinet_staccatissimo_MF_F#4_RR1.opus
</region>

<region>
hivel=90
key=F4
lovel=46
offset=593
sample=Clarinet_staccatissimo_MF_F4_RR1.opus
</region>

<region>
hivel=90
key=C#4
lovel=46
offset=1105
sample=Clarinet_staccatissimo_MF_C#4_RR1.opus
</region>

<region>
hivel=90
key=C4
lovel=46
offset=837
sample=Clarinet_staccatissimo_MF_C4_RR1.opus
</region>

<region>
hivel=90
key=D#4
lovel=46
offset=898
sample=Clarinet_staccatissimo_MF_D#4_RR1.opus
</region>

<region>
hivel=90
key=D4
lovel=46
offset=672
sample=Clarinet_staccatissimo_MF_D4_RR1.opus
</region>

<region>
hivel=90
key=E4
lovel=46
offset=671
sample=Clarinet_staccatissimo_MF_E4_RR1.opus
</region>

<region>
hivel=90
key=A#3
lovel=46
offset=5238
sample=Clarinet_staccatissimo_MF_A#3_RR1.opus
</region>

<region>
hivel=90
key=A3
lovel=46
offset=844
sample=Clarinet_staccatissimo_MF_A3_RR1.opus
</region>

<region>
hivel=90
key=B3
lovel=46
offset=878
sample=Clarinet_staccatissimo_MF_B3_RR1.opus
</region>

<region>
hivel=90
key=G#3
lovel=46
offset=449
sample=Clarinet_staccatissimo_MF_G#3_RR1.opus
</region>

<region>
hivel=90
key=G3
lovel=46
offset=1263
sample=Clarinet_staccatissimo_MF_G3_RR1.opus
</region>

<region>
hivel=45
key=D#6
lovel=0
offset=1258
sample=Clarinet_staccatissimo_PP_D#6_RR1.opus
</region>

<region>
hivel=45
key=E6
lovel=0
offset=771
sample=Clarinet_staccatissimo_PP_E6_RR1.opus
</region>

<region>
hivel=45
key=F#6
lovel=0
offset=1446
sample=Clarinet_staccatissimo_PP_F#6_RR1.opus
</region>

<region>
hivel=45
key=F6
lovel=0
offset=1882
sample=Clarinet_staccatissimo_PP_F6_RR1.opus
</region>

<region>
hikey=C7
hivel=45
lokey=G6
lovel=0
offset=1157
pitch_keycenter=G6
sample=Clarinet_staccatissimo_PP_G6_RR1.opus
</region>

<region>
hivel=45
key=A#5
lovel=0
offset=464
sample=Clarinet_staccatissimo_PP_A#5_RR1.opus
</region>

<region>
hivel=45
key=A5
lovel=0
offset=867
sample=Clarinet_staccatissimo_PP_A5_RR1.opus
</region>

<region>
hivel=45
key=B5
lovel=0
offset=655
sample=Clarinet_staccatissimo_PP_B5_RR1.opus
</region>

<region>
hivel=45
key=C#6
lovel=0
offset=611
sample=Clarinet_staccatissimo_PP_C#6_RR1.opus
</region>

<region>
hivel=45
key=C6
lovel=0
offset=663
sample=Clarinet_staccatissimo_PP_C6_RR1.opus
</region>

<region>
hivel=45
key=D6
lovel=0
offset=1451
sample=Clarinet_staccatissimo_PP_D6_RR1.opus
</region>

<region>
hivel=45
key=G#5
lovel=0
offset=638
sample=Clarinet_staccatissimo_PP_G#5_RR1.opus
</region>

<region>
hivel=45
key=G5
lovel=0
offset=2346
sample=Clarinet_staccatissimo_PP_G5_RR1.opus
</region>

<region>
hivel=45
key=C#5
lovel=0
offset=393
sample=Clarinet_staccatissimo_PP_C#5_RR1.opus
</region>

<region>
hivel=45
key=D#5
lovel=0
offset=599
sample=Clarinet_staccatissimo_PP_D#5_RR1.opus
</region>

<region>
hivel=45
key=D5
lovel=0
offset=1415
sample=Clarinet_staccatissimo_PP_D5_RR1.opus
</region>

<region>
hivel=45
key=E5
lovel=0
offset=1521
sample=Clarinet_staccatissimo_PP_E5_RR1.opus
</region>

<region>
hivel=45
key=F#5
lovel=0
offset=1507
sample=Clarinet_staccatissimo_PP_F#5_RR1.opus
</region>

<region>
hivel=45
key=F5
lovel=0
offset=2225
sample=Clarinet_staccatissimo_PP_F5_RR1.opus
</region>

<region>
hivel=45
key=A#4
lovel=0
offset=452
sample=Clarinet_staccatissimo_PP_A#4_RR1.opus
</region>

<region>
hivel=45
key=A4
lovel=0
offset=838
sample=Clarinet_staccatissimo_PP_A4_RR1.opus
</region>

<region>
hivel=45
key=B4
lovel=0
offset=597
sample=Clarinet_staccatissimo_PP_B4_RR1.opus
</region>

<region>
hivel=45
key=C5
lovel=0
offset=538
sample=Clarinet_staccatissimo_PP_C5_RR1.opus
</region>

<region>
hivel=45
key=G#4
lovel=0
offset=1370
sample=Clarinet_staccatissimo_PP_G#4_RR1.opus
</region>

<region>
hivel=45
key=G4
lovel=0
offset=873
sample=Clarinet_staccatissimo_PP_G4_RR1.opus
</region>

<region>
hivel=45
key=D#4
lovel=0
sample=Clarinet_staccatissimo_PP_D#4_RR1.opus
</region>

<region>
hivel=45
key=D4
lovel=0
offset=679
sample=Clarinet_staccatissimo_PP_D4_RR1.opus
</region>

<region>
hivel=45
key=E4
lovel=0
offset=1152
sample=Clarinet_staccatissimo_PP_E4_RR1.opus
</region>

<region>
hivel=45
key=F#4
lovel=0
sample=Clarinet_staccatissimo_PP_F#4_RR1.opus
</region>

<region>
hivel=45
key=F4
lovel=0
offset=83
sample=Clarinet_staccatissimo_PP_F4_RR1.opus
</region>

<region>
hivel=45
key=A#3
lovel=0
offset=1784
sample=Clarinet_staccatissimo_PP_A#3_RR1.opus
</region>

<region>
hivel=45
key=A3
lovel=0
offset=1497
sample=Clarinet_staccatissimo_PP_A3_RR1.opus
</region>

<region>
hivel=45
key=B3
lovel=0
offset=717
sample=Clarinet_staccatissimo_PP_B3_RR1.opus
</region>

<region>
hivel=45
key=C#4
lovel=0
offset=915
sample=Clarinet_staccatissimo_PP_C#4_RR1.opus
</region>

<region>
hivel=45
key=C4
lovel=0
offset=793
sample=Clarinet_staccatissimo_PP_C4_RR1.opus
</region>

<region>
hivel=45
key=G#3
lovel=0
offset=461
sample=Clarinet_staccatissimo_PP_G#3_RR1.opus
</region>

<region>
hivel=45
key=G3
lovel=0
offset=1726
sample=Clarinet_staccatissimo_PP_G3_RR1.opus
</region>
</group>

<group>
group_label=RR2
seq_length=8
seq_position=2

<region>
hivel=127
key=C#6
lovel=91
offset=468
sample=Clarinet_staccatissimo_FF_C#6_RR2.opus
</region>

<region>
hivel=127
key=C6
lovel=91
offset=64
sample=Clarinet_staccatissimo_FF_C6_RR2.opus
</region>

<region>
hivel=127
key=D#6
lovel=91
offset=460
sample=Clarinet_staccatissimo_FF_D#6_RR2.opus
</region>

<region>
hivel=127
key=D6
lovel=91
offset=838
sample=Clarinet_staccatissimo_FF_D6_RR2.opus
</region>

<region>
hivel=127
key=E6
lovel=91
offset=1061
sample=Clarinet_staccatissimo_FF_E6_RR2.opus
</region>

<region>
hivel=127
key=F#6
lovel=91
offset=615
sample=Clarinet_staccatissimo_FF_F#6_RR2.opus
</region>

<region>
hivel=127
key=F6
lovel=91
offset=867
sample=Clarinet_staccatissimo_FF_F6_RR2.opus
</region>

<region>
hikey=C7
hivel=127
lokey=G6
lovel=91
offset=354
pitch_keycenter=G6
sample=Clarinet_staccatissimo_FF_G6_RR2.opus
</region>

<region>
hivel=127
key=A#5
lovel=91
offset=222
sample=Clarinet_staccatissimo_FF_A#5_RR2.opus
</region>

<region>
hivel=127
key=A5
lovel=91
offset=290
sample=Clarinet_staccatissimo_FF_A5_RR2.opus
</region>

<region>
hivel=127
key=B5
lovel=91
offset=1260
sample=Clarinet_staccatissimo_FF_B5_RR2.opus
</region>

<region>
hivel=127
key=F#5
lovel=91
offset=842
sample=Clarinet_staccatissimo_FF_F#5_RR2.opus
</region>

<region>
hivel=127
key=F5
lovel=91
offset=1332
sample=Clarinet_staccatissimo_FF_F5_RR2.opus
</region>

<region>
hivel=127
key=G#5
lovel=91
offset=1055
sample=Clarinet_staccatissimo_FF_G#5_RR2.opus
</region>

<region>
hivel=127
key=G5
lovel=91
offset=1394
sample=Clarinet_staccatissimo_FF_G5_RR2.opus
</region>

<region>
hivel=127
key=B4
lovel=91
offset=294
sample=Clarinet_staccatissimo_FF_B4_RR2.opus
</region>

<region>
hivel=127
key=C#5
lovel=91
offset=9766
sample=Clarinet_staccatissimo_FF_C#5_RR2.opus
</region>

<region>
hivel=127
key=C5
lovel=91
offset=557
sample=Clarinet_staccatissimo_FF_C5_RR2.opus
</region>

<region>
hivel=127
key=D#5
lovel=91
offset=637
sample=Clarinet_staccatissimo_FF_D#5_RR2.opus
</region>

<region>
hivel=127
key=D5
lovel=91
offset=1447
sample=Clarinet_staccatissimo_FF_D5_RR2.opus
</region>

<region>
hivel=127
key=E5
lovel=91
offset=567
sample=Clarinet_staccatissimo_FF_E5_RR2.opus
</region>

<region>
hivel=127
key=A#4
lovel=91
offset=1225
sample=Clarinet_staccatissimo_FF_A#4_RR2.opus
</region>

<region>
hivel=127
key=A4
lovel=91
offset=1730
sample=Clarinet_staccatissimo_FF_A4_RR2.opus
</region>

<region>
hivel=127
key=F#4
lovel=91
offset=464
sample=Clarinet_staccatissimo_FF_F#4_RR2.opus
</region>

<region>
hivel=127
key=G#4
lovel=91
offset=599
sample=Clarinet_staccatissimo_FF_G#4_RR2.opus
</region>

<region>
hivel=127
key=G4
lovel=91
offset=751
sample=Clarinet_staccatissimo_FF_G4_RR2.opus
</region>

<region>
hivel=127
key=C#4
lovel=91
offset=995
sample=Clarinet_staccatissimo_FF_C#4_RR2.opus
</region>

<region>
hivel=127
key=C4
lovel=91
offset=652
sample=Clarinet_staccatissimo_FF_C4_RR2.opus
</region>

<region>
hivel=127
key=D#4
lovel=91
offset=636
sample=Clarinet_staccatissimo_FF_D#4_RR2.opus
</region>

<region>
hivel=127
key=D4
lovel=91
offset=514
sample=Clarinet_staccatissimo_FF_D4_RR2.opus
</region>

<region>
hivel=127
key=E4
lovel=91
offset=135
sample=Clarinet_staccatissimo_FF_E4_RR2.opus
</region>

<region>
hivel=127
key=F4
lovel=91
offset=517
sample=Clarinet_staccatissimo_FF_F4_RR2.opus
</region>

<region>
hivel=127
key=A#3
lovel=91
offset=782
sample=Clarinet_staccatissimo_FF_A#3_RR2.opus
</region>

<region>
hivel=127
key=A3
lovel=91
offset=5549
sample=Clarinet_staccatissimo_FF_A3_RR2.opus
</region>

<region>
hivel=127
key=B3
lovel=91
offset=1656
sample=Clarinet_staccatissimo_FF_B3_RR2.opus
</region>

<region>
hivel=127
key=G#3
lovel=91
offset=1643
sample=Clarinet_staccatissimo_FF_G#3_RR2.opus
</region>

<region>
hivel=127
key=G3
lovel=91
offset=1514
sample=Clarinet_staccatissimo_FF_G3_RR2.opus
</region>

<region>
hivel=90
key=D#6
lovel=46
offset=317
sample=Clarinet_staccatissimo_MF_D#6_RR2.opus
</region>

<region>
hivel=90
key=D6
lovel=46
sample=Clarinet_staccatissimo_MF_D6_RR2.opus
</region>

<region>
hivel=90
key=E6
lovel=46
offset=611
sample=Clarinet_staccatissimo_MF_E6_RR2.opus
</region>

<region>
hivel=90
key=F#6
lovel=46
offset=816
sample=Clarinet_staccatissimo_MF_F#6_RR2.opus
</region>

<region>
hivel=90
key=F6
lovel=46
offset=855
sample=Clarinet_staccatissimo_MF_F6_RR2.opus
</region>

<region>
hikey=C7
hivel=90
lokey=G6
lovel=46
offset=1270
pitch_keycenter=G6
sample=Clarinet_staccatissimo_MF_G6_RR2.opus
</region>

<region>
hivel=90
key=A#5
lovel=46
offset=551
sample=Clarinet_staccatissimo_MF_A#5_RR2.opus
</region>

<region>
hivel=90
key=A5
lovel=46
offset=947
sample=Clarinet_staccatissimo_MF_A5_RR2.opus
</region>

<region>
hivel=90
key=B5
lovel=46
offset=1274
sample=Clarinet_staccatissimo_MF_B5_RR2.opus
</region>

<region>
hivel=90
key=C#6
lovel=46
offset=293
sample=Clarinet_staccatissimo_MF_C#6_RR2.opus
</region>

<region>
hivel=90
key=C6
lovel=46
offset=565
sample=Clarinet_staccatissimo_MF_C6_RR2.opus
</region>

<region>
hivel=90
key=G#5
lovel=46
offset=1791
sample=Clarinet_staccatissimo_MF_G#5_RR2.opus
</region>

<region>
hivel=90
key=G5
lovel=46
offset=1081
sample=Clarinet_staccatissimo_MF_G5_RR2.opus
</region>

<region>
hivel=90
key=C#5
lovel=46
offset=11441
sample=Clarinet_staccatissimo_MF_C#5_RR2.opus
</region>

<region>
hivel=90
key=D#5
lovel=46
offset=832
sample=Clarinet_staccatissimo_MF_D#5_RR2.opus
</region>

<region>
hivel=90
key=D5
lovel=46
offset=605
sample=Clarinet_staccatissimo_MF_D5_RR2.opus
</region>

<region>
hivel=90
key=E5
lovel=46
offset=1022
sample=Clarinet_staccatissimo_MF_E5_RR2.opus
</region>

<region>
hivel=90
key=F#5
lovel=46
offset=1210
sample=Clarinet_staccatissimo_MF_F#5_RR2.opus
</region>

<region>
hivel=90
key=F5
lovel=46
offset=1709
sample=Clarinet_staccatissimo_MF_F5_RR2.opus
</region>

<region>
hivel=90
key=B4
lovel=46
offset=1109
sample=Clarinet_staccatissimo_MF_B4_RR2.opus
</region>

<region>
hivel=90
key=C5
lovel=46
offset=169
sample=Clarinet_staccatissimo_MF_C5_RR2.opus
</region>

<region>
hivel=90
key=A#4
lovel=46
offset=427
sample=Clarinet_staccatissimo_MF_A#4_RR2.opus
</region>

<region>
hivel=90
key=A4
lovel=46
offset=618
sample=Clarinet_staccatissimo_MF_A4_RR2.opus
</region>

<region>
hivel=90
key=G#4
lovel=46
offset=684
sample=Clarinet_staccatissimo_MF_G#4_RR2.opus
</region>

<region>
hivel=90
key=G4
lovel=46
offset=531
sample=Clarinet_staccatissimo_MF_G4_RR2.opus
</region>

<region>
hivel=90
key=F#4
lovel=46
offset=318
sample=Clarinet_staccatissimo_MF_F#4_RR2.opus
</region>

<region>
hivel=90
key=F4
lovel=46
offset=618
sample=Clarinet_staccatissimo_MF_F4_RR2.opus
</region>

<region>
hivel=90
key=C#4
lovel=46
offset=734
sample=Clarinet_staccatissimo_MF_C#4_RR2.opus
</region>

<region>
hivel=90
key=C4
lovel=46
offset=864
sample=Clarinet_staccatissimo_MF_C4_RR2.opus
</region>

<region>
hivel=90
key=D#4
lovel=46
offset=619
sample=Clarinet_staccatissimo_MF_D#4_RR2.opus
</region>

<region>
hivel=90
key=D4
lovel=46
offset=863
sample=Clarinet_staccatissimo_MF_D4_RR2.opus
</region>

<region>
hivel=90
key=E4
lovel=46
offset=845
sample=Clarinet_staccatissimo_MF_E4_RR2.opus
</region>

<region>
hivel=90
key=A#3
lovel=46
offset=765
sample=Clarinet_staccatissimo_MF_A#3_RR2.opus
</region>

<region>
hivel=90
key=A3
lovel=46
offset=847
sample=Clarinet_staccatissimo_MF_A3_RR2.opus
</region>

<region>
hivel=90
key=B3
lovel=46
offset=914
sample=Clarinet_staccatissimo_MF_B3_RR2.opus
</region>

<region>
hivel=90
key=G#3
lovel=46
offset=680
sample=Clarinet_staccatissimo_MF_G#3_RR2.opus
</region>

<region>
hivel=90
key=G3
lovel=46
offset=980
sample=Clarinet_staccatissimo_MF_G3_RR2.opus
</region>

<region>
hivel=45
key=D#6
lovel=0
offset=591
sample=Clarinet_staccatissimo_PP_D#6_RR2.opus
</region>

<region>
hivel=45
key=E6
lovel=0
offset=884
sample=Clarinet_staccatissimo_PP_E6_RR2.opus
</region>

<region>
hivel=45
key=F#6
lovel=0
offset=1067
sample=Clarinet_staccatissimo_PP_F#6_RR2.opus
</region>

<region>
hivel=45
key=F6
lovel=0
offset=877
sample=Clarinet_staccatissimo_PP_F6_RR2.opus
</region>

<region>
hikey=C7
hivel=45
lokey=G6
lovel=0
offset=222
pitch_keycenter=G6
sample=Clarinet_staccatissimo_PP_G6_RR2.opus
</region>

<region>
hivel=45
key=A#5
lovel=0
offset=662
sample=Clarinet_staccatissimo_PP_A#5_RR2.opus
</region>

<region>
hivel=45
key=A5
lovel=0
offset=7124
sample=Clarinet_staccatissimo_PP_A5_RR2.opus
</region>

<region>
hivel=45
key=B5
lovel=0
offset=1124
sample=Clarinet_staccatissimo_PP_B5_RR2.opus
</region>

<region>
hivel=45
key=C#6
lovel=0
offset=1145
sample=Clarinet_staccatissimo_PP_C#6_RR2.opus
</region>

<region>
hivel=45
key=C6
lovel=0
offset=800
sample=Clarinet_staccatissimo_PP_C6_RR2.opus
</region>

<region>
hivel=45
key=D6
lovel=0
offset=541
sample=Clarinet_staccatissimo_PP_D6_RR2.opus
</region>

<region>
hivel=45
key=G#5
lovel=0
offset=737
sample=Clarinet_staccatissimo_PP_G#5_RR2.opus
</region>

<region>
hivel=45
key=G5
lovel=0
offset=975
sample=Clarinet_staccatissimo_PP_G5_RR2.opus
</region>

<region>
hivel=45
key=C#5
lovel=0
offset=401
sample=Clarinet_staccatissimo_PP_C#5_RR2.opus
</region>

<region>
hivel=45
key=D#5
lovel=0
offset=533
sample=Clarinet_staccatissimo_PP_D#5_RR2.opus
</region>

<region>
hivel=45
key=D5
lovel=0
offset=357
sample=Clarinet_staccatissimo_PP_D5_RR2.opus
</region>

<region>
hivel=45
key=E5
lovel=0
offset=929
sample=Clarinet_staccatissimo_PP_E5_RR2.opus
</region>

<region>
hivel=45
key=F#5
lovel=0
offset=756
sample=Clarinet_staccatissimo_PP_F#5_RR2.opus
</region>

<region>
hivel=45
key=F5
lovel=0
offset=1732
sample=Clarinet_staccatissimo_PP_F5_RR2.opus
</region>

<region>
hivel=45
key=A#4
lovel=0
offset=464
sample=Clarinet_staccatissimo_PP_A#4_RR2.opus
</region>

<region>
hivel=45
key=A4
lovel=0
offset=512
sample=Clarinet_staccatissimo_PP_A4_RR2.opus
</region>

<region>
hivel=45
key=B4
lovel=0
offset=610
sample=Clarinet_staccatissimo_PP_B4_RR2.opus
</region>

<region>
hivel=45
key=C5
lovel=0
offset=731
sample=Clarinet_staccatissimo_PP_C5_RR2.opus
</region>

<region>
hivel=45
key=G#4
lovel=0
offset=1371
sample=Clarinet_staccatissimo_PP_G#4_RR2.opus
</region>

<region>
hivel=45
key=G4
lovel=0
offset=631
sample=Clarinet_staccatissimo_PP_G4_RR2.opus
</region>

<region>
hivel=45
key=C#4
lovel=0
offset=1263
sample=Clarinet_staccatissimo_PP_C#4_RR2.opus
</region>

<region>
hivel=45
key=D#4
lovel=0
offset=760
sample=Clarinet_staccatissimo_PP_D#4_RR2.opus
</region>

<region>
hivel=45
key=D4
lovel=0
offset=668
sample=Clarinet_staccatissimo_PP_D4_RR2.opus
</region>

<region>
hivel=45
key=E4
lovel=0
offset=840
sample=Clarinet_staccatissimo_PP_E4_RR2.opus
</region>

<region>
hivel=45
key=F#4
lovel=0
offset=45
sample=Clarinet_staccatissimo_PP_F#4_RR2.opus
</region>

<region>
hivel=45
key=F4
lovel=0
sample=Clarinet_staccatissimo_PP_F4_RR2.opus
</region>

<region>
hivel=45
key=A#3
lovel=0
offset=1143
sample=Clarinet_staccatissimo_PP_A#3_RR2.opus
</region>

<region>
hivel=45
key=A3
lovel=0
offset=1260
sample=Clarinet_staccatissimo_PP_A3_RR2.opus
</region>

<region>
hivel=45
key=B3
lovel=0
offset=1075
sample=Clarinet_staccatissimo_PP_B3_RR2.opus
</region>

<region>
hivel=45
key=C4
lovel=0
offset=790
sample=Clarinet_staccatissimo_PP_C4_RR2.opus
</region>

<region>
hivel=45
key=G#3
lovel=0
offset=699
sample=Clarinet_staccatissimo_PP_G#3_RR2.opus
</region>

<region>
hivel=45
key=G3
lovel=0
offset=9907
sample=Clarinet_staccatissimo_PP_G3_RR2.opus
</region>
</group>

<group>
group_label=RR3
seq_length=8
seq_position=3

<region>
hivel=127
key=C#6
lovel=91
offset=281
sample=Clarinet_staccatissimo_FF_C#6_RR3.opus
</region>

<region>
hivel=127
key=C6
lovel=91
offset=240
sample=Clarinet_staccatissimo_FF_C6_RR3.opus
</region>

<region>
hivel=127
key=D#6
lovel=91
sample=Clarinet_staccatissimo_FF_D#6_RR3.opus
</region>

<region>
hivel=127
key=D6
lovel=91
offset=1028
sample=Clarinet_staccatissimo_FF_D6_RR3.opus
</region>

<region>
hivel=127
key=E6
lovel=91
offset=643
sample=Clarinet_staccatissimo_FF_E6_RR3.opus
</region>

<region>
hivel=127
key=F#6
lovel=91
offset=393
sample=Clarinet_staccatissimo_FF_F#6_RR3.opus
</region>

<region>
hivel=127
key=F6
lovel=91
offset=485
sample=Clarinet_staccatissimo_FF_F6_RR3.opus
</region>

<region>
hikey=C7
hivel=127
lokey=G6
lovel=91
offset=185
pitch_keycenter=G6
sample=Clarinet_staccatissimo_FF_G6_RR3.opus
</region>

<region>
hivel=127
key=A#5
lovel=91
offset=569
sample=Clarinet_staccatissimo_FF_A#5_RR3.opus
</region>

<region>
hivel=127
key=A5
lovel=91
offset=1132
sample=Clarinet_staccatissimo_FF_A5_RR3.opus
</region>

<region>
hivel=127
key=B5
lovel=91
offset=2660
sample=Clarinet_staccatissimo_FF_B5_RR3.opus
</region>

<region>
hivel=127
key=F#5
lovel=91
offset=325
sample=Clarinet_staccatissimo_FF_F#5_RR3.opus
</region>

<region>
hivel=127
key=F5
lovel=91
offset=895
sample=Clarinet_staccatissimo_FF_F5_RR3.opus
</region>

<region>
hivel=127
key=G#5
lovel=91
offset=715
sample=Clarinet_staccatissimo_FF_G#5_RR3.opus
</region>

<region>
hivel=127
key=G5
lovel=91
offset=2175
sample=Clarinet_staccatissimo_FF_G5_RR3.opus
</region>

<region>
hivel=127
key=B4
lovel=91
offset=427
sample=Clarinet_staccatissimo_FF_B4_RR3.opus
</region>

<region>
hivel=127
key=C#5
lovel=91
offset=457
sample=Clarinet_staccatissimo_FF_C#5_RR3.opus
</region>

<region>
hivel=127
key=C5
lovel=91
offset=377
sample=Clarinet_staccatissimo_FF_C5_RR3.opus
</region>

<region>
hivel=127
key=D#5
lovel=91
offset=304
sample=Clarinet_staccatissimo_FF_D#5_RR3.opus
</region>

<region>
hivel=127
key=D5
lovel=91
offset=1594
sample=Clarinet_staccatissimo_FF_D5_RR3.opus
</region>

<region>
hivel=127
key=E5
lovel=91
offset=906
sample=Clarinet_staccatissimo_FF_E5_RR3.opus
</region>

<region>
hivel=127
key=A#4
lovel=91
offset=335
sample=Clarinet_staccatissimo_FF_A#4_RR3.opus
</region>

<region>
hivel=127
key=A4
lovel=91
offset=992
sample=Clarinet_staccatissimo_FF_A4_RR3.opus
</region>

<region>
hivel=127
key=F#4
lovel=91
offset=195
sample=Clarinet_staccatissimo_FF_F#4_RR3.opus
</region>

<region>
hivel=127
key=G#4
lovel=91
offset=1268
sample=Clarinet_staccatissimo_FF_G#4_RR3.opus
</region>

<region>
hivel=127
key=G4
lovel=91
offset=720
sample=Clarinet_staccatissimo_FF_G4_RR3.opus
</region>

<region>
hivel=127
key=C#4
lovel=91
offset=761
sample=Clarinet_staccatissimo_FF_C#4_RR3.opus
</region>

<region>
hivel=127
key=C4
lovel=91
offset=656
sample=Clarinet_staccatissimo_FF_C4_RR3.opus
</region>

<region>
hivel=127
key=D#4
lovel=91
offset=625
sample=Clarinet_staccatissimo_FF_D#4_RR3.opus
</region>

<region>
hivel=127
key=D4
lovel=91
offset=972
sample=Clarinet_staccatissimo_FF_D4_RR3.opus
</region>

<region>
hivel=127
key=E4
lovel=91
offset=420
sample=Clarinet_staccatissimo_FF_E4_RR3.opus
</region>

<region>
hivel=127
key=F4
lovel=91
offset=370
sample=Clarinet_staccatissimo_FF_F4_RR3.opus
</region>

<region>
hivel=127
key=A#3
lovel=91
offset=4943
sample=Clarinet_staccatissimo_FF_A#3_RR3.opus
</region>

<region>
hivel=127
key=A3
lovel=91
offset=5005
sample=Clarinet_staccatissimo_FF_A3_RR3.opus
</region>

<region>
hivel=127
key=B3
lovel=91
offset=1094
sample=Clarinet_staccatissimo_FF_B3_RR3.opus
</region>

<region>
hivel=127
key=G#3
lovel=91
offset=928
sample=Clarinet_staccatissimo_FF_G#3_RR3.opus
</region>

<region>
hivel=127
key=G3
lovel=91
offset=1240
sample=Clarinet_staccatissimo_FF_G3_RR3.opus
</region>

<region>
hivel=90
key=D#6
lovel=46
offset=454
sample=Clarinet_staccatissimo_MF_D#6_RR3.opus
</region>

<region>
hivel=90
key=D6
lovel=46
offset=58
sample=Clarinet_staccatissimo_MF_D6_RR3.opus
</region>

<region>
hivel=90
key=E6
lovel=46
offset=1241
sample=Clarinet_staccatissimo_MF_E6_RR3.opus
</region>

<region>
hivel=90
key=F#6
lovel=46
offset=790
sample=Clarinet_staccatissimo_MF_F#6_RR3.opus
</region>

<region>
hivel=90
key=F6
lovel=46
offset=1098
sample=Clarinet_staccatissimo_MF_F6_RR3.opus
</region>

<region>
hikey=C7
hivel=90
lokey=G6
lovel=46
offset=100
pitch_keycenter=G6
sample=Clarinet_staccatissimo_MF_G6_RR3.opus
</region>

<region>
hivel=90
key=A#5
lovel=46
offset=290
sample=Clarinet_staccatissimo_MF_A#5_RR3.opus
</region>

<region>
hivel=90
key=A5
lovel=46
offset=1258
sample=Clarinet_staccatissimo_MF_A5_RR3.opus
</region>

<region>
hivel=90
key=B5
lovel=46
offset=1422
sample=Clarinet_staccatissimo_MF_B5_RR3.opus
</region>

<region>
hivel=90
key=C#6
lovel=46
offset=652
sample=Clarinet_staccatissimo_MF_C#6_RR3.opus
</region>

<region>
hivel=90
key=C6
lovel=46
offset=400
sample=Clarinet_staccatissimo_MF_C6_RR3.opus
</region>

<region>
hivel=90
key=F#5
lovel=46
offset=1186
sample=Clarinet_staccatissimo_MF_F#5_RR3.opus
</region>

<region>
hivel=90
key=G#5
lovel=46
offset=1387
sample=Clarinet_staccatissimo_MF_G#5_RR3.opus
</region>

<region>
hivel=90
key=G5
lovel=46
offset=2221
sample=Clarinet_staccatissimo_MF_G5_RR3.opus
</region>

<region>
hivel=90
key=C#5
lovel=46
offset=309
sample=Clarinet_staccatissimo_MF_C#5_RR3.opus
</region>

<region>
hivel=90
key=D#5
lovel=46
offset=692
sample=Clarinet_staccatissimo_MF_D#5_RR3.opus
</region>

<region>
hivel=90
key=D5
lovel=46
offset=1191
sample=Clarinet_staccatissimo_MF_D5_RR3.opus
</region>

<region>
hivel=90
key=E5
lovel=46
offset=955
sample=Clarinet_staccatissimo_MF_E5_RR3.opus
</region>

<region>
hivel=90
key=F5
lovel=46
offset=1323
sample=Clarinet_staccatissimo_MF_F5_RR3.opus
</region>

<region>
hivel=90
key=B4
lovel=46
offset=707
sample=Clarinet_staccatissimo_MF_B4_RR3.opus
</region>

<region>
hivel=90
key=C5
lovel=46
offset=459
sample=Clarinet_staccatissimo_MF_C5_RR3.opus
</region>

<region>
hivel=90
key=A#4
lovel=46
offset=480
sample=Clarinet_staccatissimo_MF_A#4_RR3.opus
</region>

<region>
hivel=90
key=A4
lovel=46
offset=1328
sample=Clarinet_staccatissimo_MF_A4_RR3.opus
</region>

<region>
hivel=90
key=G#4
lovel=46
offset=575
sample=Clarinet_staccatissimo_MF_G#4_RR3.opus
</region>

<region>
hivel=90
key=G4
lovel=46
offset=1117
sample=Clarinet_staccatissimo_MF_G4_RR3.opus
</region>

<region>
hivel=90
key=E4
lovel=46
offset=691
sample=Clarinet_staccatissimo_MF_E4_RR3.opus
</region>

<region>
hivel=90
key=F#4
lovel=46
offset=439
sample=Clarinet_staccatissimo_MF_F#4_RR3.opus
</region>

<region>
hivel=90
key=F4
lovel=46
offset=765
sample=Clarinet_staccatissimo_MF_F4_RR3.opus
</region>

<region>
hivel=90
key=C#4
lovel=46
offset=756
sample=Clarinet_staccatissimo_MF_C#4_RR3.opus
</region>

<region>
hivel=90
key=C4
lovel=46
offset=837
sample=Clarinet_staccatissimo_MF_C4_RR3.opus
</region>

<region>
hivel=90
key=D#4
lovel=46
offset=1044
sample=Clarinet_staccatissimo_MF_D#4_RR3.opus
</region>

<region>
hivel=90
key=D4
lovel=46
offset=514
sample=Clarinet_staccatissimo_MF_D4_RR3.opus
</region>

<region>
hivel=90
key=A#3
lovel=46
offset=6429
sample=Clarinet_staccatissimo_MF_A#3_RR3.opus
</region>

<region>
hivel=90
key=A3
lovel=46
offset=852
sample=Clarinet_staccatissimo_MF_A3_RR3.opus
</region>

<region>
hivel=90
key=B3
lovel=46
offset=1067
sample=Clarinet_staccatissimo_MF_B3_RR3.opus
</region>

<region>
hivel=90
key=G#3
lovel=46
offset=685
sample=Clarinet_staccatissimo_MF_G#3_RR3.opus
</region>

<region>
hivel=90
key=G3
lovel=46
offset=1214
sample=Clarinet_staccatissimo_MF_G3_RR3.opus
</region>

<region>
hivel=45
key=D#6
lovel=0
offset=561
sample=Clarinet_staccatissimo_PP_D#6_RR3.opus
</region>

<region>
hivel=45
key=E6
lovel=0
offset=1133
sample=Clarinet_staccatissimo_PP_E6_RR3.opus
</region>

<region>
hivel=45
key=F#6
lovel=0
offset=15746
sample=Clarinet_staccatissimo_PP_F#6_RR3.opus
</region>

<region>
hivel=45
key=F6
lovel=0
offset=741
sample=Clarinet_staccatissimo_PP_F6_RR3.opus
</region>

<region>
hikey=C7
hivel=45
lokey=G6
lovel=0
offset=1035
pitch_keycenter=G6
sample=Clarinet_staccatissimo_PP_G6_RR3.opus
</region>

<region>
hivel=45
key=A#5
lovel=0
offset=559
sample=Clarinet_staccatissimo_PP_A#5_RR3.opus
</region>

<region>
hivel=45
key=A5
lovel=0
offset=1368
sample=Clarinet_staccatissimo_PP_A5_RR3.opus
</region>

<region>
hivel=45
key=B5
lovel=0
offset=252
sample=Clarinet_staccatissimo_PP_B5_RR3.opus
</region>

<region>
hivel=45
key=C#6
lovel=0
offset=857
sample=Clarinet_staccatissimo_PP_C#6_RR3.opus
</region>

<region>
hivel=45
key=C6
lovel=0
offset=461
sample=Clarinet_staccatissimo_PP_C6_RR3.opus
</region>

<region>
hivel=45
key=D6
lovel=0
offset=800
sample=Clarinet_staccatissimo_PP_D6_RR3.opus
</region>

<region>
hivel=45
key=G#5
lovel=0
offset=1801
sample=Clarinet_staccatissimo_PP_G#5_RR3.opus
</region>

<region>
hivel=45
key=G5
lovel=0
offset=863
sample=Clarinet_staccatissimo_PP_G5_RR3.opus
</region>

<region>
hivel=45
key=C#5
lovel=0
offset=311
sample=Clarinet_staccatissimo_PP_C#5_RR3.opus
</region>

<region>
hivel=45
key=D#5
lovel=0
offset=754
sample=Clarinet_staccatissimo_PP_D#5_RR3.opus
</region>

<region>
hivel=45
key=D5
lovel=0
offset=478
sample=Clarinet_staccatissimo_PP_D5_RR3.opus
</region>

<region>
hivel=45
key=E5
lovel=0
offset=995
sample=Clarinet_staccatissimo_PP_E5_RR3.opus
</region>

<region>
hivel=45
key=F#5
lovel=0
offset=1547
sample=Clarinet_staccatissimo_PP_F#5_RR3.opus
</region>

<region>
hivel=45
key=F5
lovel=0
offset=895
sample=Clarinet_staccatissimo_PP_F5_RR3.opus
</region>

<region>
hivel=45
key=A#4
lovel=0
offset=452
sample=Clarinet_staccatissimo_PP_A#4_RR3.opus
</region>

<region>
hivel=45
key=A4
lovel=0
offset=840
sample=Clarinet_staccatissimo_PP_A4_RR3.opus
</region>

<region>
hivel=45
key=B4
lovel=0
offset=505
sample=Clarinet_staccatissimo_PP_B4_RR3.opus
</region>

<region>
hivel=45
key=C5
lovel=0
offset=644
sample=Clarinet_staccatissimo_PP_C5_RR3.opus
</region>

<region>
hivel=45
key=G#4
lovel=0
offset=1488
sample=Clarinet_staccatissimo_PP_G#4_RR3.opus
</region>

<region>
hivel=45
key=G4
lovel=0
offset=747
sample=Clarinet_staccatissimo_PP_G4_RR3.opus
</region>

<region>
hivel=45
key=C#4
lovel=0
offset=896
sample=Clarinet_staccatissimo_PP_C#4_RR3.opus
</region>

<region>
hivel=45
key=D#4
lovel=0
offset=920
sample=Clarinet_staccatissimo_PP_D#4_RR3.opus
</region>

<region>
hivel=45
key=D4
lovel=0
offset=671
sample=Clarinet_staccatissimo_PP_D4_RR3.opus
</region>

<region>
hivel=45
key=E4
lovel=0
offset=1132
sample=Clarinet_staccatissimo_PP_E4_RR3.opus
</region>

<region>
hivel=45
key=F#4
lovel=0
sample=Clarinet_staccatissimo_PP_F#4_RR3.opus
</region>

<region>
hivel=45
key=F4
lovel=0
offset=220
sample=Clarinet_staccatissimo_PP_F4_RR3.opus
</region>

<region>
hivel=45
key=A#3
lovel=0
offset=939
sample=Clarinet_staccatissimo_PP_A#3_RR3.opus
</region>

<region>
hivel=45
key=A3
lovel=0
offset=625
sample=Clarinet_staccatissimo_PP_A3_RR3.opus
</region>

<region>
hivel=45
key=B3
lovel=0
offset=1083
sample=Clarinet_staccatissimo_PP_B3_RR3.opus
</region>

<region>
hivel=45
key=C4
lovel=0
offset=631
sample=Clarinet_staccatissimo_PP_C4_RR3.opus
</region>

<region>
hivel=45
key=G#3
lovel=0
offset=1359
sample=Clarinet_staccatissimo_PP_G#3_RR3.opus
</region>

<region>
hivel=45
key=G3
lovel=0
offset=6106
sample=Clarinet_staccatissimo_PP_G3_RR3.opus
</region>
</group>

<group>
group_label=RR4
seq_length=8
seq_position=4

<region>
hivel=127
key=C#6
lovel=91
offset=316
sample=Clarinet_staccatissimo_FF_C#6_RR4.opus
</region>

<region>
hivel=127
key=C6
lovel=91
offset=344
sample=Clarinet_staccatissimo_FF_C6_RR4.opus
</region>

<region>
hivel=127
key=D#6
lovel=91
offset=2
sample=Clarinet_staccatissimo_FF_D#6_RR4.opus
</region>

<region>
hivel=127
key=D6
lovel=91
offset=482
sample=Clarinet_staccatissimo_FF_D6_RR4.opus
</region>

<region>
hivel=127
key=E6
lovel=91
offset=701
sample=Clarinet_staccatissimo_FF_E6_RR4.opus
</region>

<region>
hivel=127
key=F#6
lovel=91
offset=166
sample=Clarinet_staccatissimo_FF_F#6_RR4.opus
</region>

<region>
hivel=127
key=F6
lovel=91
offset=265
sample=Clarinet_staccatissimo_FF_F6_RR4.opus
</region>

<region>
hikey=C7
hivel=127
lokey=G6
lovel=91
offset=501
pitch_keycenter=G6
sample=Clarinet_staccatissimo_FF_G6_RR4.opus
</region>

<region>
hivel=127
key=A#5
lovel=91
offset=199
sample=Clarinet_staccatissimo_FF_A#5_RR4.opus
</region>

<region>
hivel=127
key=A5
lovel=91
offset=555
sample=Clarinet_staccatissimo_FF_A5_RR4.opus
</region>

<region>
hivel=127
key=B5
lovel=91
offset=620
sample=Clarinet_staccatissimo_FF_B5_RR4.opus
</region>

<region>
hivel=127
key=F#5
lovel=91
offset=383
sample=Clarinet_staccatissimo_FF_F#5_RR4.opus
</region>

<region>
hivel=127
key=F5
lovel=91
offset=1348
sample=Clarinet_staccatissimo_FF_F5_RR4.opus
</region>

<region>
hivel=127
key=G#5
lovel=91
offset=1007
sample=Clarinet_staccatissimo_FF_G#5_RR4.opus
</region>

<region>
hivel=127
key=G5
lovel=91
offset=1338
sample=Clarinet_staccatissimo_FF_G5_RR4.opus
</region>

<region>
hivel=127
key=B4
lovel=91
offset=679
sample=Clarinet_staccatissimo_FF_B4_RR4.opus
</region>

<region>
hivel=127
key=C#5
lovel=91
offset=607
sample=Clarinet_staccatissimo_FF_C#5_RR4.opus
</region>

<region>
hivel=127
key=C5
lovel=91
offset=481
sample=Clarinet_staccatissimo_FF_C5_RR4.opus
</region>

<region>
hivel=127
key=D#5
lovel=91
offset=538
sample=Clarinet_staccatissimo_FF_D#5_RR4.opus
</region>

<region>
hivel=127
key=D5
lovel=91
offset=1027
sample=Clarinet_staccatissimo_FF_D5_RR4.opus
</region>

<region>
hivel=127
key=E5
lovel=91
offset=1098
sample=Clarinet_staccatissimo_FF_E5_RR4.opus
</region>

<region>
hivel=127
key=A#4
lovel=91
offset=211
sample=Clarinet_staccatissimo_FF_A#4_RR4.opus
</region>

<region>
hivel=127
key=A4
lovel=91
offset=403
sample=Clarinet_staccatissimo_FF_A4_RR4.opus
</region>

<region>
hivel=127
key=F#4
lovel=91
offset=565
sample=Clarinet_staccatissimo_FF_F#4_RR4.opus
</region>

<region>
hivel=127
key=G#4
lovel=91
offset=1150
sample=Clarinet_staccatissimo_FF_G#4_RR4.opus
</region>

<region>
hivel=127
key=G4
lovel=91
offset=930
sample=Clarinet_staccatissimo_FF_G4_RR4.opus
</region>

<region>
hivel=127
key=C#4
lovel=91
offset=740
sample=Clarinet_staccatissimo_FF_C#4_RR4.opus
</region>

<region>
hivel=127
key=C4
lovel=91
offset=1362
sample=Clarinet_staccatissimo_FF_C4_RR4.opus
</region>

<region>
hivel=127
key=D#4
lovel=91
offset=957
sample=Clarinet_staccatissimo_FF_D#4_RR4.opus
</region>

<region>
hivel=127
key=D4
lovel=91
offset=377
sample=Clarinet_staccatissimo_FF_D4_RR4.opus
</region>

<region>
hivel=127
key=E4
lovel=91
offset=430
sample=Clarinet_staccatissimo_FF_E4_RR4.opus
</region>

<region>
hivel=127
key=F4
lovel=91
offset=371
sample=Clarinet_staccatissimo_FF_F4_RR4.opus
</region>

<region>
hivel=127
key=A#3
lovel=91
offset=5893
sample=Clarinet_staccatissimo_FF_A#3_RR4.opus
</region>

<region>
hivel=127
key=A3
lovel=91
offset=5048
sample=Clarinet_staccatissimo_FF_A3_RR4.opus
</region>

<region>
hivel=127
key=B3
lovel=91
offset=1398
sample=Clarinet_staccatissimo_FF_B3_RR4.opus
</region>

<region>
hivel=127
key=G#3
lovel=91
offset=700
sample=Clarinet_staccatissimo_FF_G#3_RR4.opus
</region>

<region>
hivel=127
key=G3
lovel=91
offset=1494
sample=Clarinet_staccatissimo_FF_G3_RR4.opus
</region>

<region>
hivel=90
key=D#6
lovel=46
offset=920
sample=Clarinet_staccatissimo_MF_D#6_RR4.opus
</region>

<region>
hivel=90
key=D6
lovel=46
offset=514
sample=Clarinet_staccatissimo_MF_D6_RR4.opus
</region>

<region>
hivel=90
key=E6
lovel=46
offset=1102
sample=Clarinet_staccatissimo_MF_E6_RR4.opus
</region>

<region>
hivel=90
key=F#6
lovel=46
offset=1017
sample=Clarinet_staccatissimo_MF_F#6_RR4.opus
</region>

<region>
hivel=90
key=F6
lovel=46
offset=702
sample=Clarinet_staccatissimo_MF_F6_RR4.opus
</region>

<region>
hikey=C7
hivel=90
lokey=G6
lovel=46
offset=795
pitch_keycenter=G6
sample=Clarinet_staccatissimo_MF_G6_RR4.opus
</region>

<region>
hivel=90
key=A#5
lovel=46
offset=770
sample=Clarinet_staccatissimo_MF_A#5_RR4.opus
</region>

<region>
hivel=90
key=A5
lovel=46
offset=1052
sample=Clarinet_staccatissimo_MF_A5_RR4.opus
</region>

<region>
hivel=90
key=B5
lovel=46
offset=1133
sample=Clarinet_staccatissimo_MF_B5_RR4.opus
</region>

<region>
hivel=90
key=C#6
lovel=46
offset=750
sample=Clarinet_staccatissimo_MF_C#6_RR4.opus
</region>

<region>
hivel=90
key=C6
lovel=46
offset=1299
sample=Clarinet_staccatissimo_MF_C6_RR4.opus
</region>

<region>
hivel=90
key=F#5
lovel=46
offset=1246
sample=Clarinet_staccatissimo_MF_F#5_RR4.opus
</region>

<region>
hivel=90
key=G#5
lovel=46
offset=1465
sample=Clarinet_staccatissimo_MF_G#5_RR4.opus
</region>

<region>
hivel=90
key=G5
lovel=46
offset=2174
sample=Clarinet_staccatissimo_MF_G5_RR4.opus
</region>

<region>
hivel=90
key=C#5
lovel=46
offset=400
sample=Clarinet_staccatissimo_MF_C#5_RR4.opus
</region>

<region>
hivel=90
key=D#5
lovel=46
offset=1392
sample=Clarinet_staccatissimo_MF_D#5_RR4.opus
</region>

<region>
hivel=90
key=D5
lovel=46
offset=1784
sample=Clarinet_staccatissimo_MF_D5_RR4.opus
</region>

<region>
hivel=90
key=E5
lovel=46
offset=6050
sample=Clarinet_staccatissimo_MF_E5_RR4.opus
</region>

<region>
hivel=90
key=F5
lovel=46
offset=1775
sample=Clarinet_staccatissimo_MF_F5_RR4.opus
</region>

<region>
hivel=90
key=B4
lovel=46
offset=878
sample=Clarinet_staccatissimo_MF_B4_RR4.opus
</region>

<region>
hivel=90
key=C5
lovel=46
offset=190
sample=Clarinet_staccatissimo_MF_C5_RR4.opus
</region>

<region>
hivel=90
key=A#4
lovel=46
offset=10666
sample=Clarinet_staccatissimo_MF_A#4_RR4.opus
</region>

<region>
hivel=90
key=A4
lovel=46
offset=745
sample=Clarinet_staccatissimo_MF_A4_RR4.opus
</region>

<region>
hivel=90
key=G#4
lovel=46
offset=824
sample=Clarinet_staccatissimo_MF_G#4_RR4.opus
</region>

<region>
hivel=90
key=G4
lovel=46
offset=636
sample=Clarinet_staccatissimo_MF_G4_RR4.opus
</region>

<region>
hivel=90
key=E4
lovel=46
offset=565
sample=Clarinet_staccatissimo_MF_E4_RR4.opus
</region>

<region>
hivel=90
key=F#4
lovel=46
offset=554
sample=Clarinet_staccatissimo_MF_F#4_RR4.opus
</region>

<region>
hivel=90
key=F4
lovel=46
offset=697
sample=Clarinet_staccatissimo_MF_F4_RR4.opus
</region>

<region>
hivel=90
key=C#4
lovel=46
offset=914
sample=Clarinet_staccatissimo_MF_C#4_RR4.opus
</region>

<region>
hivel=90
key=C4
lovel=46
offset=828
sample=Clarinet_staccatissimo_MF_C4_RR4.opus
</region>

<region>
hivel=90
key=D#4
lovel=46
offset=911
sample=Clarinet_staccatissimo_MF_D#4_RR4.opus
</region>

<region>
hivel=90
key=D4
lovel=46
offset=859
sample=Clarinet_staccatissimo_MF_D4_RR4.opus
</region>

<region>
hivel=90
key=A#3
lovel=46
offset=572
sample=Clarinet_staccatissimo_MF_A#3_RR4.opus
</region>

<region>
hivel=90
key=A3
lovel=46
offset=645
sample=Clarinet_staccatissimo_MF_A3_RR4.opus
</region>

<region>
hivel=90
key=B3
lovel=46
offset=1097
sample=Clarinet_staccatissimo_MF_B3_RR4.opus
</region>

<region>
hivel=90
key=G#3
lovel=46
offset=688
sample=Clarinet_staccatissimo_MF_G#3_RR4.opus
</region>

<region>
hivel=90
key=G3
lovel=46
offset=1285
sample=Clarinet_staccatissimo_MF_G3_RR4.opus
</region>

<region>
hivel=45
key=D#6
lovel=0
offset=647
sample=Clarinet_staccatissimo_PP_D#6_RR4.opus
</region>

<region>
hivel=45
key=E6
lovel=0
offset=800
sample=Clarinet_staccatissimo_PP_E6_RR4.opus
</region>

<region>
hivel=45
key=F#6
lovel=0
offset=731
sample=Clarinet_staccatissimo_PP_F#6_RR4.opus
</region>

<region>
hivel=45
key=F6
lovel=0
offset=856
sample=Clarinet_staccatissimo_PP_F6_RR4.opus
</region>

<region>
hikey=C7
hivel=45
lokey=G6
lovel=0
offset=926
pitch_keycenter=G6
sample=Clarinet_staccatissimo_PP_G6_RR4.opus
</region>

<region>
hivel=45
key=A#5
lovel=0
offset=566
sample=Clarinet_staccatissimo_PP_A#5_RR4.opus
</region>

<region>
hivel=45
key=A5
lovel=0
offset=555
sample=Clarinet_staccatissimo_PP_A5_RR4.opus
</region>

<region>
hivel=45
key=B5
lovel=0
offset=747
sample=Clarinet_staccatissimo_PP_B5_RR4.opus
</region>

<region>
hivel=45
key=C#6
lovel=0
offset=620
sample=Clarinet_staccatissimo_PP_C#6_RR4.opus
</region>

<region>
hivel=45
key=C6
lovel=0
offset=856
sample=Clarinet_staccatissimo_PP_C6_RR4.opus
</region>

<region>
hivel=45
key=D6
lovel=0
offset=388
sample=Clarinet_staccatissimo_PP_D6_RR4.opus
</region>

<region>
hivel=45
key=G#5
lovel=0
offset=1258
sample=Clarinet_staccatissimo_PP_G#5_RR4.opus
</region>

<region>
hivel=45
key=G5
lovel=0
offset=2333
sample=Clarinet_staccatissimo_PP_G5_RR4.opus
</region>

<region>
hivel=45
key=C#5
lovel=0
offset=468
sample=Clarinet_staccatissimo_PP_C#5_RR4.opus
</region>

<region>
hivel=45
key=C5
lovel=0
offset=726
sample=Clarinet_staccatissimo_PP_C5_RR4.opus
</region>

<region>
hivel=45
key=D#5
lovel=0
offset=306
sample=Clarinet_staccatissimo_PP_D#5_RR4.opus
</region>

<region>
hivel=45
key=D5
lovel=0
offset=880
sample=Clarinet_staccatissimo_PP_D5_RR4.opus
</region>

<region>
hivel=45
key=E5
lovel=0
offset=927
sample=Clarinet_staccatissimo_PP_E5_RR4.opus
</region>

<region>
hivel=45
key=F#5
lovel=0
offset=1189
sample=Clarinet_staccatissimo_PP_F#5_RR4.opus
</region>

<region>
hivel=45
key=F5
lovel=0
offset=1338
sample=Clarinet_staccatissimo_PP_F5_RR4.opus
</region>

<region>
hivel=45
key=A#4
lovel=0
offset=859
sample=Clarinet_staccatissimo_PP_A#4_RR4.opus
</region>

<region>
hivel=45
key=A4
lovel=0
offset=825
sample=Clarinet_staccatissimo_PP_A4_RR4.opus
</region>

<region>
hivel=45
key=B4
lovel=0
offset=804
sample=Clarinet_staccatissimo_PP_B4_RR4.opus
</region>

<region>
hivel=45
key=G#4
lovel=0
offset=1494
sample=Clarinet_staccatissimo_PP_G#4_RR4.opus
</region>

<region>
hivel=45
key=G4
lovel=0
offset=635
sample=Clarinet_staccatissimo_PP_G4_RR4.opus
</region>

<region>
hivel=45
key=C#4
lovel=0
offset=719
sample=Clarinet_staccatissimo_PP_C#4_RR4.opus
</region>

<region>
hivel=45
key=D#4
lovel=0
offset=1052
sample=Clarinet_staccatissimo_PP_D#4_RR4.opus
</region>

<region>
hivel=45
key=D4
lovel=0
offset=846
sample=Clarinet_staccatissimo_PP_D4_RR4.opus
</region>

<region>
hivel=45
key=E4
lovel=0
offset=837
sample=Clarinet_staccatissimo_PP_E4_RR4.opus
</region>

<region>
hivel=45
key=F#4
lovel=0
sample=Clarinet_staccatissimo_PP_F#4_RR4.opus
</region>

<region>
hivel=45
key=F4
lovel=0
offset=776
sample=Clarinet_staccatissimo_PP_F4_RR4.opus
</region>

<region>
hivel=45
key=A#3
lovel=0
offset=158
sample=Clarinet_staccatissimo_PP_A#3_RR4.opus
</region>

<region>
hivel=45
key=A3
lovel=0
offset=1270
sample=Clarinet_staccatissimo_PP_A3_RR4.opus
</region>

<region>
hivel=45
key=B3
lovel=0
offset=1073
sample=Clarinet_staccatissimo_PP_B3_RR4.opus
</region>

<region>
hivel=45
key=C4
lovel=0
offset=1170
sample=Clarinet_staccatissimo_PP_C4_RR4.opus
</region>

<region>
hivel=45
key=G#3
lovel=0
offset=9187
sample=Clarinet_staccatissimo_PP_G#3_RR4.opus
</region>

<region>
hivel=45
key=G3
lovel=0
offset=3375
sample=Clarinet_staccatissimo_PP_G3_RR4.opus
</region>
</group>

<group>
group_label=RR5
seq_length=8
seq_position=5

<region>
hivel=127
key=C#6
lovel=91
offset=686
sample=Clarinet_staccatissimo_FF_C#6_RR5.opus
</region>

<region>
hivel=127
key=C6
lovel=91
offset=1124
sample=Clarinet_staccatissimo_FF_C6_RR5.opus
</region>

<region>
hivel=127
key=D#6
lovel=91
sample=Clarinet_staccatissimo_FF_D#6_RR5.opus
</region>

<region>
hivel=127
key=D6
lovel=91
offset=765
sample=Clarinet_staccatissimo_FF_D6_RR5.opus
</region>

<region>
hivel=127
key=E6
lovel=91
offset=267
sample=Clarinet_staccatissimo_FF_E6_RR5.opus
</region>

<region>
hivel=127
key=F#6
lovel=91
offset=638
sample=Clarinet_staccatissimo_FF_F#6_RR5.opus
</region>

<region>
hivel=127
key=F6
lovel=91
offset=986
sample=Clarinet_staccatissimo_FF_F6_RR5.opus
</region>

<region>
hikey=C7
hivel=127
lokey=G6
lovel=91
offset=272
pitch_keycenter=G6
sample=Clarinet_staccatissimo_FF_G6_RR5.opus
</region>

<region>
hivel=127
key=A#5
lovel=91
offset=310
sample=Clarinet_staccatissimo_FF_A#5_RR5.opus
</region>

<region>
hivel=127
key=A5
lovel=91
offset=26
sample=Clarinet_staccatissimo_FF_A5_RR5.opus
</region>

<region>
hivel=127
key=B5
lovel=91
offset=134
sample=Clarinet_staccatissimo_FF_B5_RR5.opus
</region>

<region>
hivel=127
key=F#5
lovel=91
offset=378
sample=Clarinet_staccatissimo_FF_F#5_RR5.opus
</region>

<region>
hivel=127
key=F5
lovel=91
offset=1336
sample=Clarinet_staccatissimo_FF_F5_RR5.opus
</region>

<region>
hivel=127
key=G#5
lovel=91
offset=766
sample=Clarinet_staccatissimo_FF_G#5_RR5.opus
</region>

<region>
hivel=127
key=G5
lovel=91
offset=1662
sample=Clarinet_staccatissimo_FF_G5_RR5.opus
</region>

<region>
hivel=127
key=B4
lovel=91
offset=657
sample=Clarinet_staccatissimo_FF_B4_RR5.opus
</region>

<region>
hivel=127
key=C#5
lovel=91
offset=843
sample=Clarinet_staccatissimo_FF_C#5_RR5.opus
</region>

<region>
hivel=127
key=C5
lovel=91
offset=346
sample=Clarinet_staccatissimo_FF_C5_RR5.opus
</region>

<region>
hivel=127
key=D#5
lovel=91
offset=246
sample=Clarinet_staccatissimo_FF_D#5_RR5.opus
</region>

<region>
hivel=127
key=D5
lovel=91
offset=1668
sample=Clarinet_staccatissimo_FF_D5_RR5.opus
</region>

<region>
hivel=127
key=E5
lovel=91
offset=584
sample=Clarinet_staccatissimo_FF_E5_RR5.opus
</region>

<region>
hivel=127
key=A#4
lovel=91
offset=199
sample=Clarinet_staccatissimo_FF_A#4_RR5.opus
</region>

<region>
hivel=127
key=A4
lovel=91
offset=560
sample=Clarinet_staccatissimo_FF_A4_RR5.opus
</region>

<region>
hivel=127
key=F#4
lovel=91
offset=185
sample=Clarinet_staccatissimo_FF_F#4_RR5.opus
</region>

<region>
hivel=127
key=G#4
lovel=91
offset=456
sample=Clarinet_staccatissimo_FF_G#4_RR5.opus
</region>

<region>
hivel=127
key=G4
lovel=91
offset=798
sample=Clarinet_staccatissimo_FF_G4_RR5.opus
</region>

<region>
hivel=127
key=C#4
lovel=91
offset=925
sample=Clarinet_staccatissimo_FF_C#4_RR5.opus
</region>

<region>
hivel=127
key=C4
lovel=91
offset=841
sample=Clarinet_staccatissimo_FF_C4_RR5.opus
</region>

<region>
hivel=127
key=D#4
lovel=91
offset=878
sample=Clarinet_staccatissimo_FF_D#4_RR5.opus
</region>

<region>
hivel=127
key=D4
lovel=91
offset=519
sample=Clarinet_staccatissimo_FF_D4_RR5.opus
</region>

<region>
hivel=127
key=E4
lovel=91
offset=271
sample=Clarinet_staccatissimo_FF_E4_RR5.opus
</region>

<region>
hivel=127
key=F4
lovel=91
offset=521
sample=Clarinet_staccatissimo_FF_F4_RR5.opus
</region>

<region>
hivel=127
key=A#3
lovel=91
offset=1610
sample=Clarinet_staccatissimo_FF_A#3_RR5.opus
</region>

<region>
hivel=127
key=A3
lovel=91
offset=1310
sample=Clarinet_staccatissimo_FF_A3_RR5.opus
</region>

<region>
hivel=127
key=B3
lovel=91
offset=1314
sample=Clarinet_staccatissimo_FF_B3_RR5.opus
</region>

<region>
hivel=127
key=G#3
lovel=91
offset=919
sample=Clarinet_staccatissimo_FF_G#3_RR5.opus
</region>

<region>
hivel=127
key=G3
lovel=91
offset=2748
sample=Clarinet_staccatissimo_FF_G3_RR5.opus
</region>

<region>
hivel=90
key=D#6
lovel=46
offset=140
sample=Clarinet_staccatissimo_MF_D#6_RR5.opus
</region>

<region>
hivel=90
key=D6
lovel=46
offset=585
sample=Clarinet_staccatissimo_MF_D6_RR5.opus
</region>

<region>
hivel=90
key=E6
lovel=46
offset=738
sample=Clarinet_staccatissimo_MF_E6_RR5.opus
</region>

<region>
hivel=90
key=F#6
lovel=46
offset=943
sample=Clarinet_staccatissimo_MF_F#6_RR5.opus
</region>

<region>
hivel=90
key=F6
lovel=46
offset=888
sample=Clarinet_staccatissimo_MF_F6_RR5.opus
</region>

<region>
hikey=C7
hivel=90
lokey=G6
lovel=46
offset=621
pitch_keycenter=G6
sample=Clarinet_staccatissimo_MF_G6_RR5.opus
</region>

<region>
hivel=90
key=A#5
lovel=46
offset=1000
sample=Clarinet_staccatissimo_MF_A#5_RR5.opus
</region>

<region>
hivel=90
key=A5
lovel=46
offset=1599
sample=Clarinet_staccatissimo_MF_A5_RR5.opus
</region>

<region>
hivel=90
key=B5
lovel=46
offset=1143
sample=Clarinet_staccatissimo_MF_B5_RR5.opus
</region>

<region>
hivel=90
key=C#6
lovel=46
offset=392
sample=Clarinet_staccatissimo_MF_C#6_RR5.opus
</region>

<region>
hivel=90
key=C6
lovel=46
offset=378
sample=Clarinet_staccatissimo_MF_C6_RR5.opus
</region>

<region>
hivel=90
key=F#5
lovel=46
offset=1138
sample=Clarinet_staccatissimo_MF_F#5_RR5.opus
</region>

<region>
hivel=90
key=G#5
lovel=46
offset=1442
sample=Clarinet_staccatissimo_MF_G#5_RR5.opus
</region>

<region>
hivel=90
key=G5
lovel=46
offset=6674
sample=Clarinet_staccatissimo_MF_G5_RR5.opus
</region>

<region>
hivel=90
key=C#5
lovel=46
offset=954
sample=Clarinet_staccatissimo_MF_C#5_RR5.opus
</region>

<region>
hivel=90
key=D#5
lovel=46
offset=533
sample=Clarinet_staccatissimo_MF_D#5_RR5.opus
</region>

<region>
hivel=90
key=D5
lovel=46
offset=909
sample=Clarinet_staccatissimo_MF_D5_RR5.opus
</region>

<region>
hivel=90
key=E5
lovel=46
offset=7311
sample=Clarinet_staccatissimo_MF_E5_RR5.opus
</region>

<region>
hivel=90
key=F5
lovel=46
offset=1746
sample=Clarinet_staccatissimo_MF_F5_RR5.opus
</region>

<region>
hivel=90
key=B4
lovel=46
offset=1056
sample=Clarinet_staccatissimo_MF_B4_RR5.opus
</region>

<region>
hivel=90
key=C5
lovel=46
offset=903
sample=Clarinet_staccatissimo_MF_C5_RR5.opus
</region>

<region>
hivel=90
key=A#4
lovel=46
offset=550
sample=Clarinet_staccatissimo_MF_A#4_RR5.opus
</region>

<region>
hivel=90
key=A4
lovel=46
offset=526
sample=Clarinet_staccatissimo_MF_A4_RR5.opus
</region>

<region>
hivel=90
key=G#4
lovel=46
offset=803
sample=Clarinet_staccatissimo_MF_G#4_RR5.opus
</region>

<region>
hivel=90
key=G4
lovel=46
offset=631
sample=Clarinet_staccatissimo_MF_G4_RR5.opus
</region>

<region>
hivel=90
key=E4
lovel=46
offset=843
sample=Clarinet_staccatissimo_MF_E4_RR5.opus
</region>

<region>
hivel=90
key=F#4
lovel=46
offset=439
sample=Clarinet_staccatissimo_MF_F#4_RR5.opus
</region>

<region>
hivel=90
key=F4
lovel=46
offset=771
sample=Clarinet_staccatissimo_MF_F4_RR5.opus
</region>

<region>
hivel=90
key=C#4
lovel=46
offset=1111
sample=Clarinet_staccatissimo_MF_C#4_RR5.opus
</region>

<region>
hivel=90
key=C4
lovel=46
offset=810
sample=Clarinet_staccatissimo_MF_C4_RR5.opus
</region>

<region>
hivel=90
key=D#4
lovel=46
offset=897
sample=Clarinet_staccatissimo_MF_D#4_RR5.opus
</region>

<region>
hivel=90
key=D4
lovel=46
offset=700
sample=Clarinet_staccatissimo_MF_D4_RR5.opus
</region>

<region>
hivel=90
key=A#3
lovel=46
offset=756
sample=Clarinet_staccatissimo_MF_A#3_RR5.opus
</region>

<region>
hivel=90
key=A3
lovel=46
offset=865
sample=Clarinet_staccatissimo_MF_A3_RR5.opus
</region>

<region>
hivel=90
key=B3
lovel=46
offset=900
sample=Clarinet_staccatissimo_MF_B3_RR5.opus
</region>

<region>
hivel=90
key=G#3
lovel=46
offset=668
sample=Clarinet_staccatissimo_MF_G#3_RR5.opus
</region>

<region>
hivel=90
key=G3
lovel=46
offset=1960
sample=Clarinet_staccatissimo_MF_G3_RR5.opus
</region>

<region>
hivel=45
key=D#6
lovel=0
offset=381
sample=Clarinet_staccatissimo_PP_D#6_RR5.opus
</region>

<region>
hivel=45
key=E6
lovel=0
offset=669
sample=Clarinet_staccatissimo_PP_E6_RR5.opus
</region>

<region>
hivel=45
key=F#6
lovel=0
offset=776
sample=Clarinet_staccatissimo_PP_F#6_RR5.opus
</region>

<region>
hivel=45
key=F6
lovel=0
offset=1327
sample=Clarinet_staccatissimo_PP_F6_RR5.opus
</region>

<region>
hikey=C7
hivel=45
lokey=G6
lovel=0
offset=1027
pitch_keycenter=G6
sample=Clarinet_staccatissimo_PP_G6_RR5.opus
</region>

<region>
hivel=45
key=A#5
lovel=0
offset=766
sample=Clarinet_staccatissimo_PP_A#5_RR5.opus
</region>

<region>
hivel=45
key=A5
lovel=0
offset=463
sample=Clarinet_staccatissimo_PP_A5_RR5.opus
</region>

<region>
hivel=45
key=B5
lovel=0
offset=604
sample=Clarinet_staccatissimo_PP_B5_RR5.opus
</region>

<region>
hivel=45
key=C#6
lovel=0
offset=889
sample=Clarinet_staccatissimo_PP_C#6_RR5.opus
</region>

<region>
hivel=45
key=C6
lovel=0
offset=600
sample=Clarinet_staccatissimo_PP_C6_RR5.opus
</region>

<region>
hivel=45
key=D6
lovel=0
offset=6428
sample=Clarinet_staccatissimo_PP_D6_RR5.opus
</region>

<region>
hivel=45
key=G#5
lovel=0
offset=457
sample=Clarinet_staccatissimo_PP_G#5_RR5.opus
</region>

<region>
hivel=45
key=G5
lovel=0
offset=2285
sample=Clarinet_staccatissimo_PP_G5_RR5.opus
</region>

<region>
hivel=45
key=C#5
lovel=0
offset=480
sample=Clarinet_staccatissimo_PP_C#5_RR5.opus
</region>

<region>
hivel=45
key=C5
lovel=0
offset=625
sample=Clarinet_staccatissimo_PP_C5_RR5.opus
</region>

<region>
hivel=45
key=D#5
lovel=0
offset=458
sample=Clarinet_staccatissimo_PP_D#5_RR5.opus
</region>

<region>
hivel=45
key=D5
lovel=0
offset=93
sample=Clarinet_staccatissimo_PP_D5_RR5.opus
</region>

<region>
hivel=45
key=E5
lovel=0
offset=981
sample=Clarinet_staccatissimo_PP_E5_RR5.opus
</region>

<region>
hivel=45
key=F#5
lovel=0
offset=1019
sample=Clarinet_staccatissimo_PP_F#5_RR5.opus
</region>

<region>
hivel=45
key=F5
lovel=0
offset=973
sample=Clarinet_staccatissimo_PP_F5_RR5.opus
</region>

<region>
hivel=45
key=A#4
lovel=0
offset=563
sample=Clarinet_staccatissimo_PP_A#4_RR5.opus
</region>

<region>
hivel=45
key=A4
lovel=0
offset=842
sample=Clarinet_staccatissimo_PP_A4_RR5.opus
</region>

<region>
hivel=45
key=B4
lovel=0
offset=807
sample=Clarinet_staccatissimo_PP_B4_RR5.opus
</region>

<region>
hivel=45
key=G#4
lovel=0
offset=1391
sample=Clarinet_staccatissimo_PP_G#4_RR5.opus
</region>

<region>
hivel=45
key=G4
lovel=0
offset=629
sample=Clarinet_staccatissimo_PP_G4_RR5.opus
</region>

<region>
hivel=45
key=C#4
lovel=0
offset=1243
sample=Clarinet_staccatissimo_PP_C#4_RR5.opus
</region>

<region>
hivel=45
key=D#4
lovel=0
offset=611
sample=Clarinet_staccatissimo_PP_D#4_RR5.opus
</region>

<region>
hivel=45
key=D4
lovel=0
offset=842
sample=Clarinet_staccatissimo_PP_D4_RR5.opus
</region>

<region>
hivel=45
key=E4
lovel=0
offset=1136
sample=Clarinet_staccatissimo_PP_E4_RR5.opus
</region>

<region>
hivel=45
key=F#4
lovel=0
offset=174
sample=Clarinet_staccatissimo_PP_F#4_RR5.opus
</region>

<region>
hivel=45
key=F4
lovel=0
offset=486
sample=Clarinet_staccatissimo_PP_F4_RR5.opus
</region>

<region>
hivel=45
key=A#3
lovel=0
offset=1792
sample=Clarinet_staccatissimo_PP_A#3_RR5.opus
</region>

<region>
hivel=45
key=A3
lovel=0
offset=1280
sample=Clarinet_staccatissimo_PP_A3_RR5.opus
</region>

<region>
hivel=45
key=B3
lovel=0
offset=1087
sample=Clarinet_staccatissimo_PP_B3_RR5.opus
</region>

<region>
hivel=45
key=C4
lovel=0
offset=66
sample=Clarinet_staccatissimo_PP_C4_RR5.opus
</region>

<region>
hivel=45
key=G#3
lovel=0
offset=12016
sample=Clarinet_staccatissimo_PP_G#3_RR5.opus
</region>

<region>
hivel=45
key=G3
lovel=0
offset=7680
sample=Clarinet_staccatissimo_PP_G3_RR5.opus
</region>
</group>

<group>
group_label=RR6
seq_length=8
seq_position=6

<region>
hivel=127
key=C#6
lovel=91
offset=181
sample=Clarinet_staccatissimo_FF_C#6_RR6.opus
</region>

<region>
hivel=127
key=C6
lovel=91
offset=411
sample=Clarinet_staccatissimo_FF_C6_RR6.opus
</region>

<region>
hivel=127
key=D#6
lovel=91
offset=127
sample=Clarinet_staccatissimo_FF_D#6_RR6.opus
</region>

<region>
hivel=127
key=D6
lovel=91
offset=391
sample=Clarinet_staccatissimo_FF_D6_RR6.opus
</region>

<region>
hivel=127
key=E6
lovel=91
offset=476
sample=Clarinet_staccatissimo_FF_E6_RR6.opus
</region>

<region>
hivel=127
key=F#6
lovel=91
offset=550
sample=Clarinet_staccatissimo_FF_F#6_RR6.opus
</region>

<region>
hivel=127
key=F6
lovel=91
offset=592
sample=Clarinet_staccatissimo_FF_F6_RR6.opus
</region>

<region>
hikey=C7
hivel=127
lokey=G6
lovel=91
pitch_keycenter=G6
sample=Clarinet_staccatissimo_FF_G6_RR6.opus
</region>

<region>
hivel=127
key=A#5
lovel=91
offset=668
sample=Clarinet_staccatissimo_FF_A#5_RR6.opus
</region>

<region>
hivel=127
key=A5
lovel=91
offset=824
sample=Clarinet_staccatissimo_FF_A5_RR6.opus
</region>

<region>
hivel=127
key=B5
lovel=91
offset=713
sample=Clarinet_staccatissimo_FF_B5_RR6.opus
</region>

<region>
hivel=127
key=F#5
lovel=91
offset=896
sample=Clarinet_staccatissimo_FF_F#5_RR6.opus
</region>

<region>
hivel=127
key=F5
lovel=91
offset=737
sample=Clarinet_staccatissimo_FF_F5_RR6.opus
</region>

<region>
hivel=127
key=G#5
lovel=91
offset=648
sample=Clarinet_staccatissimo_FF_G#5_RR6.opus
</region>

<region>
hivel=127
key=G5
lovel=91
offset=792
sample=Clarinet_staccatissimo_FF_G5_RR6.opus
</region>

<region>
hivel=127
key=B4
lovel=91
offset=379
sample=Clarinet_staccatissimo_FF_B4_RR6.opus
</region>

<region>
hivel=127
key=C#5
lovel=91
offset=217
sample=Clarinet_staccatissimo_FF_C#5_RR6.opus
</region>

<region>
hivel=127
key=C5
lovel=91
offset=426
sample=Clarinet_staccatissimo_FF_C5_RR6.opus
</region>

<region>
hivel=127
key=D#5
lovel=91
offset=942
sample=Clarinet_staccatissimo_FF_D#5_RR6.opus
</region>

<region>
hivel=127
key=D5
lovel=91
offset=1751
sample=Clarinet_staccatissimo_FF_D5_RR6.opus
</region>

<region>
hivel=127
key=E5
lovel=91
offset=490
sample=Clarinet_staccatissimo_FF_E5_RR6.opus
</region>

<region>
hivel=127
key=A#4
lovel=91
offset=664
sample=Clarinet_staccatissimo_FF_A#4_RR6.opus
</region>

<region>
hivel=127
key=A4
lovel=91
offset=856
sample=Clarinet_staccatissimo_FF_A4_RR6.opus
</region>

<region>
hivel=127
key=F#4
lovel=91
offset=918
sample=Clarinet_staccatissimo_FF_F#4_RR6.opus
</region>

<region>
hivel=127
key=G#4
lovel=91
offset=578
sample=Clarinet_staccatissimo_FF_G#4_RR6.opus
</region>

<region>
hivel=127
key=G4
lovel=91
offset=668
sample=Clarinet_staccatissimo_FF_G4_RR6.opus
</region>

<region>
hivel=127
key=C#4
lovel=91
offset=2076
sample=Clarinet_staccatissimo_FF_C#4_RR6.opus
</region>

<region>
hivel=127
key=C4
lovel=91
offset=655
sample=Clarinet_staccatissimo_FF_C4_RR6.opus
</region>

<region>
hivel=127
key=D#4
lovel=91
offset=809
sample=Clarinet_staccatissimo_FF_D#4_RR6.opus
</region>

<region>
hivel=127
key=D4
lovel=91
offset=687
sample=Clarinet_staccatissimo_FF_D4_RR6.opus
</region>

<region>
hivel=127
key=E4
lovel=91
offset=419
sample=Clarinet_staccatissimo_FF_E4_RR6.opus
</region>

<region>
hivel=127
key=F4
lovel=91
offset=369
sample=Clarinet_staccatissimo_FF_F4_RR6.opus
</region>

<region>
hivel=127
key=A#3
lovel=91
offset=1169
sample=Clarinet_staccatissimo_FF_A#3_RR6.opus
</region>

<region>
hivel=127
key=A3
lovel=91
offset=1315
sample=Clarinet_staccatissimo_FF_A3_RR6.opus
</region>

<region>
hivel=127
key=B3
lovel=91
offset=1504
sample=Clarinet_staccatissimo_FF_B3_RR6.opus
</region>

<region>
hivel=127
key=G#3
lovel=91
offset=926
sample=Clarinet_staccatissimo_FF_G#3_RR6.opus
</region>

<region>
hivel=127
key=G3
lovel=91
offset=2238
sample=Clarinet_staccatissimo_FF_G3_RR6.opus
</region>

<region>
hivel=90
key=D#6
lovel=46
offset=439
sample=Clarinet_staccatissimo_MF_D#6_RR6.opus
</region>

<region>
hivel=90
key=D6
lovel=46
offset=97
sample=Clarinet_staccatissimo_MF_D6_RR6.opus
</region>

<region>
hivel=90
key=E6
lovel=46
offset=744
sample=Clarinet_staccatissimo_MF_E6_RR6.opus
</region>

<region>
hivel=90
key=F#6
lovel=46
offset=204
sample=Clarinet_staccatissimo_MF_F#6_RR6.opus
</region>

<region>
hivel=90
key=F6
lovel=46
offset=367
sample=Clarinet_staccatissimo_MF_F6_RR6.opus
</region>

<region>
hikey=C7
hivel=90
lokey=G6
lovel=46
offset=283
pitch_keycenter=G6
sample=Clarinet_staccatissimo_MF_G6_RR6.opus
</region>

<region>
hivel=90
key=A#5
lovel=46
offset=952
sample=Clarinet_staccatissimo_MF_A#5_RR6.opus
</region>

<region>
hivel=90
key=A5
lovel=46
offset=1116
sample=Clarinet_staccatissimo_MF_A5_RR6.opus
</region>

<region>
hivel=90
key=B5
lovel=46
offset=1196
sample=Clarinet_staccatissimo_MF_B5_RR6.opus
</region>

<region>
hivel=90
key=C#6
lovel=46
offset=840
sample=Clarinet_staccatissimo_MF_C#6_RR6.opus
</region>

<region>
hivel=90
key=C6
lovel=46
offset=477
sample=Clarinet_staccatissimo_MF_C6_RR6.opus
</region>

<region>
hivel=90
key=F#5
lovel=46
offset=991
sample=Clarinet_staccatissimo_MF_F#5_RR6.opus
</region>

<region>
hivel=90
key=G#5
lovel=46
offset=1691
sample=Clarinet_staccatissimo_MF_G#5_RR6.opus
</region>

<region>
hivel=90
key=G5
lovel=46
offset=1220
sample=Clarinet_staccatissimo_MF_G5_RR6.opus
</region>

<region>
hivel=90
key=C#5
lovel=46
offset=489
sample=Clarinet_staccatissimo_MF_C#5_RR6.opus
</region>

<region>
hivel=90
key=D#5
lovel=46
offset=937
sample=Clarinet_staccatissimo_MF_D#5_RR6.opus
</region>

<region>
hivel=90
key=D5
lovel=46
offset=755
sample=Clarinet_staccatissimo_MF_D5_RR6.opus
</region>

<region>
hivel=90
key=E5
lovel=46
offset=774
sample=Clarinet_staccatissimo_MF_E5_RR6.opus
</region>

<region>
hivel=90
key=F5
lovel=46
offset=735
sample=Clarinet_staccatissimo_MF_F5_RR6.opus
</region>

<region>
hivel=90
key=B4
lovel=46
offset=1168
sample=Clarinet_staccatissimo_MF_B4_RR6.opus
</region>

<region>
hivel=90
key=C5
lovel=46
offset=628
sample=Clarinet_staccatissimo_MF_C5_RR6.opus
</region>

<region>
hivel=90
key=A#4
lovel=46
offset=460
sample=Clarinet_staccatissimo_MF_A#4_RR6.opus
</region>

<region>
hivel=90
key=A4
lovel=46
offset=1768
sample=Clarinet_staccatissimo_MF_A4_RR6.opus
</region>

<region>
hivel=90
key=G#4
lovel=46
offset=1048
sample=Clarinet_staccatissimo_MF_G#4_RR6.opus
</region>

<region>
hivel=90
key=G4
lovel=46
offset=514
sample=Clarinet_staccatissimo_MF_G4_RR6.opus
</region>

<region>
hivel=90
key=E4
lovel=46
offset=710
sample=Clarinet_staccatissimo_MF_E4_RR6.opus
</region>

<region>
hivel=90
key=F#4
lovel=46
offset=316
sample=Clarinet_staccatissimo_MF_F#4_RR6.opus
</region>

<region>
hivel=90
key=F4
lovel=46
offset=700
sample=Clarinet_staccatissimo_MF_F4_RR6.opus
</region>

<region>
hivel=90
key=C#4
lovel=46
offset=925
sample=Clarinet_staccatissimo_MF_C#4_RR6.opus
</region>

<region>
hivel=90
key=C4
lovel=46
offset=820
sample=Clarinet_staccatissimo_MF_C4_RR6.opus
</region>

<region>
hivel=90
key=D#4
lovel=46
offset=629
sample=Clarinet_staccatissimo_MF_D#4_RR6.opus
</region>

<region>
hivel=90
key=D4
lovel=46
offset=1034
sample=Clarinet_staccatissimo_MF_D4_RR6.opus
</region>

<region>
hivel=90
key=A#3
lovel=46
offset=6255
sample=Clarinet_staccatissimo_MF_A#3_RR6.opus
</region>

<region>
hivel=90
key=A3
lovel=46
offset=650
sample=Clarinet_staccatissimo_MF_A3_RR6.opus
</region>

<region>
hivel=90
key=B3
lovel=46
offset=875
sample=Clarinet_staccatissimo_MF_B3_RR6.opus
</region>

<region>
hivel=90
key=G#3
lovel=46
offset=670
sample=Clarinet_staccatissimo_MF_G#3_RR6.opus
</region>

<region>
hivel=90
key=G3
lovel=46
offset=1263
sample=Clarinet_staccatissimo_MF_G3_RR6.opus
</region>

<region>
hivel=45
key=D#6
lovel=0
offset=387
sample=Clarinet_staccatissimo_PP_D#6_RR6.opus
</region>

<region>
hivel=45
key=E6
lovel=0
offset=870
sample=Clarinet_staccatissimo_PP_E6_RR6.opus
</region>

<region>
hivel=45
key=F#6
lovel=0
offset=1344
sample=Clarinet_staccatissimo_PP_F#6_RR6.opus
</region>

<region>
hivel=45
key=F6
lovel=0
offset=1569
sample=Clarinet_staccatissimo_PP_F6_RR6.opus
</region>

<region>
hikey=C7
hivel=45
lokey=G6
lovel=0
offset=400
pitch_keycenter=G6
sample=Clarinet_staccatissimo_PP_G6_RR6.opus
</region>

<region>
hivel=45
key=A#5
lovel=0
offset=867
sample=Clarinet_staccatissimo_PP_A#5_RR6.opus
</region>

<region>
hivel=45
key=A5
lovel=0
offset=563
sample=Clarinet_staccatissimo_PP_A5_RR6.opus
</region>

<region>
hivel=45
key=B5
lovel=0
offset=991
sample=Clarinet_staccatissimo_PP_B5_RR6.opus
</region>

<region>
hivel=45
key=C#6
lovel=0
offset=530
sample=Clarinet_staccatissimo_PP_C#6_RR6.opus
</region>

<region>
hivel=45
key=C6
lovel=0
offset=457
sample=Clarinet_staccatissimo_PP_C6_RR6.opus
</region>

<region>
hivel=45
key=D6
lovel=0
offset=10401
sample=Clarinet_staccatissimo_PP_D6_RR6.opus
</region>

<region>
hivel=45
key=G#5
lovel=0
offset=971
sample=Clarinet_staccatissimo_PP_G#5_RR6.opus
</region>

<region>
hivel=45
key=G5
lovel=0
offset=4710
sample=Clarinet_staccatissimo_PP_G5_RR6.opus
</region>

<region>
hivel=45
key=C#5
lovel=0
offset=860
sample=Clarinet_staccatissimo_PP_C#5_RR6.opus
</region>

<region>
hivel=45
key=C5
lovel=0
offset=726
sample=Clarinet_staccatissimo_PP_C5_RR6.opus
</region>

<region>
hivel=45
key=D#5
lovel=0
offset=1162
sample=Clarinet_staccatissimo_PP_D#5_RR6.opus
</region>

<region>
hivel=45
key=D5
lovel=0
offset=10249
sample=Clarinet_staccatissimo_PP_D5_RR6.opus
</region>

<region>
hivel=45
key=E5
lovel=0
offset=1060
sample=Clarinet_staccatissimo_PP_E5_RR6.opus
</region>

<region>
hivel=45
key=F#5
lovel=0
sample=Clarinet_staccatissimo_PP_F#5_RR6.opus
</region>

<region>
hivel=45
key=F5
lovel=0
offset=6006
sample=Clarinet_staccatissimo_PP_F5_RR6.opus
</region>

<region>
hivel=45
key=A#4
lovel=0
offset=557
sample=Clarinet_staccatissimo_PP_A#4_RR6.opus
</region>

<region>
hivel=45
key=A4
lovel=0
offset=729
sample=Clarinet_staccatissimo_PP_A4_RR6.opus
</region>

<region>
hivel=45
key=B4
lovel=0
offset=1000
sample=Clarinet_staccatissimo_PP_B4_RR6.opus
</region>

<region>
hivel=45
key=G#4
lovel=0
offset=1375
sample=Clarinet_staccatissimo_PP_G#4_RR6.opus
</region>

<region>
hivel=45
key=G4
lovel=0
offset=755
sample=Clarinet_staccatissimo_PP_G4_RR6.opus
</region>

<region>
hivel=45
key=C#4
lovel=0
offset=1448
sample=Clarinet_staccatissimo_PP_C#4_RR6.opus
</region>

<region>
hivel=45
key=D#4
lovel=0
offset=294
sample=Clarinet_staccatissimo_PP_D#4_RR6.opus
</region>

<region>
hivel=45
key=D4
lovel=0
offset=670
sample=Clarinet_staccatissimo_PP_D4_RR6.opus
</region>

<region>
hivel=45
key=E4
lovel=0
offset=1422
sample=Clarinet_staccatissimo_PP_E4_RR6.opus
</region>

<region>
hivel=45
key=F#4
lovel=0
offset=42
sample=Clarinet_staccatissimo_PP_F#4_RR6.opus
</region>

<region>
hivel=45
key=F4
lovel=0
offset=219
sample=Clarinet_staccatissimo_PP_F4_RR6.opus
</region>

<region>
hivel=45
key=A#3
lovel=0
offset=745
sample=Clarinet_staccatissimo_PP_A#3_RR6.opus
</region>

<region>
hivel=45
key=A3
lovel=0
offset=1264
sample=Clarinet_staccatissimo_PP_A3_RR6.opus
</region>

<region>
hivel=45
key=B3
lovel=0
offset=1298
sample=Clarinet_staccatissimo_PP_B3_RR6.opus
</region>

<region>
hivel=45
key=C4
lovel=0
offset=795
sample=Clarinet_staccatissimo_PP_C4_RR6.opus
</region>

<region>
hivel=45
key=G#3
lovel=0
offset=692
sample=Clarinet_staccatissimo_PP_G#3_RR6.opus
</region>

<region>
hivel=45
key=G3
lovel=0
offset=10020
sample=Clarinet_staccatissimo_PP_G3_RR6.opus
</region>
</group>

<group>
group_label=RR7
seq_length=8
seq_position=7

<region>
hivel=127
key=C#6
lovel=91
offset=111
sample=Clarinet_staccatissimo_FF_C#6_RR7.opus
</region>

<region>
hivel=127
key=C6
lovel=91
offset=287
sample=Clarinet_staccatissimo_FF_C6_RR7.opus
</region>

<region>
hivel=127
key=D#6
lovel=91
sample=Clarinet_staccatissimo_FF_D#6_RR7.opus
</region>

<region>
hivel=127
key=D6
lovel=91
offset=727
sample=Clarinet_staccatissimo_FF_D6_RR7.opus
</region>

<region>
hivel=127
key=E6
lovel=91
offset=1026
sample=Clarinet_staccatissimo_FF_E6_RR7.opus
</region>

<region>
hivel=127
key=F#6
lovel=91
offset=195
sample=Clarinet_staccatissimo_FF_F#6_RR7.opus
</region>

<region>
hivel=127
key=F6
lovel=91
offset=908
sample=Clarinet_staccatissimo_FF_F6_RR7.opus
</region>

<region>
hikey=C7
hivel=127
lokey=G6
lovel=91
offset=68
pitch_keycenter=G6
sample=Clarinet_staccatissimo_FF_G6_RR7.opus
</region>

<region>
hivel=127
key=A#5
lovel=91
sample=Clarinet_staccatissimo_FF_A#5_RR7.opus
</region>

<region>
hivel=127
key=A5
lovel=91
offset=1400
sample=Clarinet_staccatissimo_FF_A5_RR7.opus
</region>

<region>
hivel=127
key=B5
lovel=91
offset=270
sample=Clarinet_staccatissimo_FF_B5_RR7.opus
</region>

<region>
hivel=127
key=F#5
lovel=91
offset=723
sample=Clarinet_staccatissimo_FF_F#5_RR7.opus
</region>

<region>
hivel=127
key=F5
lovel=91
offset=910
sample=Clarinet_staccatissimo_FF_F5_RR7.opus
</region>

<region>
hivel=127
key=G#5
lovel=91
offset=628
sample=Clarinet_staccatissimo_FF_G#5_RR7.opus
</region>

<region>
hivel=127
key=G5
lovel=91
offset=1972
sample=Clarinet_staccatissimo_FF_G5_RR7.opus
</region>

<region>
hivel=127
key=B4
lovel=91
offset=306
sample=Clarinet_staccatissimo_FF_B4_RR7.opus
</region>

<region>
hivel=127
key=C#5
lovel=91
offset=235
sample=Clarinet_staccatissimo_FF_C#5_RR7.opus
</region>

<region>
hivel=127
key=C5
lovel=91
offset=606
sample=Clarinet_staccatissimo_FF_C5_RR7.opus
</region>

<region>
hivel=127
key=D#5
lovel=91
offset=1465
sample=Clarinet_staccatissimo_FF_D#5_RR7.opus
</region>

<region>
hivel=127
key=D5
lovel=91
offset=2372
sample=Clarinet_staccatissimo_FF_D5_RR7.opus
</region>

<region>
hivel=127
key=E5
lovel=91
offset=567
sample=Clarinet_staccatissimo_FF_E5_RR7.opus
</region>

<region>
hivel=127
key=A#4
lovel=91
offset=330
sample=Clarinet_staccatissimo_FF_A#4_RR7.opus
</region>

<region>
hivel=127
key=A4
lovel=91
offset=1112
sample=Clarinet_staccatissimo_FF_A4_RR7.opus
</region>

<region>
hivel=127
key=F#4
lovel=91
offset=594
sample=Clarinet_staccatissimo_FF_F#4_RR7.opus
</region>

<region>
hivel=127
key=G#4
lovel=91
offset=578
sample=Clarinet_staccatissimo_FF_G#4_RR7.opus
</region>

<region>
hivel=127
key=G4
lovel=91
offset=814
sample=Clarinet_staccatissimo_FF_G4_RR7.opus
</region>

<region>
hivel=127
key=C#4
lovel=91
offset=1063
sample=Clarinet_staccatissimo_FF_C#4_RR7.opus
</region>

<region>
hivel=127
key=C4
lovel=91
offset=1411
sample=Clarinet_staccatissimo_FF_C4_RR7.opus
</region>

<region>
hivel=127
key=D#4
lovel=91
offset=318
sample=Clarinet_staccatissimo_FF_D#4_RR7.opus
</region>

<region>
hivel=127
key=D4
lovel=91
offset=533
sample=Clarinet_staccatissimo_FF_D4_RR7.opus
</region>

<region>
hivel=127
key=E4
lovel=91
offset=425
sample=Clarinet_staccatissimo_FF_E4_RR7.opus
</region>

<region>
hivel=127
key=F4
lovel=91
offset=656
sample=Clarinet_staccatissimo_FF_F4_RR7.opus
</region>

<region>
hivel=127
key=A#3
lovel=91
offset=1813
sample=Clarinet_staccatissimo_FF_A#3_RR7.opus
</region>

<region>
hivel=127
key=A3
lovel=91
offset=1540
sample=Clarinet_staccatissimo_FF_A3_RR7.opus
</region>

<region>
hivel=127
key=B3
lovel=91
offset=1501
sample=Clarinet_staccatissimo_FF_B3_RR7.opus
</region>

<region>
hivel=127
key=G#3
lovel=91
offset=1420
sample=Clarinet_staccatissimo_FF_G#3_RR7.opus
</region>

<region>
hivel=127
key=G3
lovel=91
offset=1957
sample=Clarinet_staccatissimo_FF_G3_RR7.opus
</region>

<region>
hivel=90
key=D#6
lovel=46
offset=168
sample=Clarinet_staccatissimo_MF_D#6_RR7.opus
</region>

<region>
hivel=90
key=D6
lovel=46
offset=244
sample=Clarinet_staccatissimo_MF_D6_RR7.opus
</region>

<region>
hivel=90
key=E6
lovel=46
offset=1296
sample=Clarinet_staccatissimo_MF_E6_RR7.opus
</region>

<region>
hivel=90
key=F#6
lovel=46
offset=1778
sample=Clarinet_staccatissimo_MF_F#6_RR7.opus
</region>

<region>
hivel=90
key=F6
lovel=46
offset=441
sample=Clarinet_staccatissimo_MF_F6_RR7.opus
</region>

<region>
hikey=C7
hivel=90
lokey=G6
lovel=46
offset=117
pitch_keycenter=G6
sample=Clarinet_staccatissimo_MF_G6_RR7.opus
</region>

<region>
hivel=90
key=A#5
lovel=46
offset=598
sample=Clarinet_staccatissimo_MF_A#5_RR7.opus
</region>

<region>
hivel=90
key=A5
lovel=46
offset=1132
sample=Clarinet_staccatissimo_MF_A5_RR7.opus
</region>

<region>
hivel=90
key=B5
lovel=46
offset=634
sample=Clarinet_staccatissimo_MF_B5_RR7.opus
</region>

<region>
hivel=90
key=C#6
lovel=46
offset=625
sample=Clarinet_staccatissimo_MF_C#6_RR7.opus
</region>

<region>
hivel=90
key=C6
lovel=46
offset=419
sample=Clarinet_staccatissimo_MF_C6_RR7.opus
</region>

<region>
hivel=90
key=F#5
lovel=46
offset=1815
sample=Clarinet_staccatissimo_MF_F#5_RR7.opus
</region>

<region>
hivel=90
key=G#5
lovel=46
offset=1028
sample=Clarinet_staccatissimo_MF_G#5_RR7.opus
</region>

<region>
hivel=90
key=G5
lovel=46
offset=1584
sample=Clarinet_staccatissimo_MF_G5_RR7.opus
</region>

<region>
hivel=90
key=C#5
lovel=46
offset=996
sample=Clarinet_staccatissimo_MF_C#5_RR7.opus
</region>

<region>
hivel=90
key=D#5
lovel=46
offset=770
sample=Clarinet_staccatissimo_MF_D#5_RR7.opus
</region>

<region>
hivel=90
key=D5
lovel=46
offset=879
sample=Clarinet_staccatissimo_MF_D5_RR7.opus
</region>

<region>
hivel=90
key=E5
lovel=46
offset=894
sample=Clarinet_staccatissimo_MF_E5_RR7.opus
</region>

<region>
hivel=90
key=F5
lovel=46
offset=1570
sample=Clarinet_staccatissimo_MF_F5_RR7.opus
</region>

<region>
hivel=90
key=B4
lovel=46
offset=781
sample=Clarinet_staccatissimo_MF_B4_RR7.opus
</region>

<region>
hivel=90
key=C5
lovel=46
offset=973
sample=Clarinet_staccatissimo_MF_C5_RR7.opus
</region>

<region>
hivel=90
key=A#4
lovel=46
offset=348
sample=Clarinet_staccatissimo_MF_A#4_RR7.opus
</region>

<region>
hivel=90
key=A4
lovel=46
offset=529
sample=Clarinet_staccatissimo_MF_A4_RR7.opus
</region>

<region>
hivel=90
key=G#4
lovel=46
offset=1261
sample=Clarinet_staccatissimo_MF_G#4_RR7.opus
</region>

<region>
hivel=90
key=G4
lovel=46
offset=636
sample=Clarinet_staccatissimo_MF_G4_RR7.opus
</region>

<region>
hivel=90
key=E4
lovel=46
offset=724
sample=Clarinet_staccatissimo_MF_E4_RR7.opus
</region>

<region>
hivel=90
key=F#4
lovel=46
offset=309
sample=Clarinet_staccatissimo_MF_F#4_RR7.opus
</region>

<region>
hivel=90
key=F4
lovel=46
offset=680
sample=Clarinet_staccatissimo_MF_F4_RR7.opus
</region>

<region>
hivel=90
key=C#4
lovel=46
offset=943
sample=Clarinet_staccatissimo_MF_C#4_RR7.opus
</region>

<region>
hivel=90
key=C4
lovel=46
offset=648
sample=Clarinet_staccatissimo_MF_C4_RR7.opus
</region>

<region>
hivel=90
key=D#4
lovel=46
offset=1062
sample=Clarinet_staccatissimo_MF_D#4_RR7.opus
</region>

<region>
hivel=90
key=D4
lovel=46
offset=694
sample=Clarinet_staccatissimo_MF_D4_RR7.opus
</region>

<region>
hivel=90
key=A#3
lovel=46
offset=774
sample=Clarinet_staccatissimo_MF_A#3_RR7.opus
</region>

<region>
hivel=90
key=A3
lovel=46
offset=645
sample=Clarinet_staccatissimo_MF_A3_RR7.opus
</region>

<region>
hivel=90
key=B3
lovel=46
offset=704
sample=Clarinet_staccatissimo_MF_B3_RR7.opus
</region>

<region>
hivel=90
key=G#3
lovel=46
offset=664
sample=Clarinet_staccatissimo_MF_G#3_RR7.opus
</region>

<region>
hivel=90
key=G3
lovel=46
offset=1270
sample=Clarinet_staccatissimo_MF_G3_RR7.opus
</region>

<region>
hivel=45
key=D#6
lovel=0
offset=681
sample=Clarinet_staccatissimo_PP_D#6_RR7.opus
</region>

<region>
hivel=45
key=E6
lovel=0
offset=752
sample=Clarinet_staccatissimo_PP_E6_RR7.opus
</region>

<region>
hivel=45
key=F#6
lovel=0
offset=3569
sample=Clarinet_staccatissimo_PP_F#6_RR7.opus
</region>

<region>
hivel=45
key=F6
lovel=0
offset=2197
sample=Clarinet_staccatissimo_PP_F6_RR7.opus
</region>

<region>
hikey=C7
hivel=45
lokey=G6
lovel=0
offset=407
pitch_keycenter=G6
sample=Clarinet_staccatissimo_PP_G6_RR7.opus
</region>

<region>
hivel=45
key=A#5
lovel=0
offset=769
sample=Clarinet_staccatissimo_PP_A#5_RR7.opus
</region>

<region>
hivel=45
key=A5
lovel=0
offset=283
sample=Clarinet_staccatissimo_PP_A5_RR7.opus
</region>

<region>
hivel=45
key=B5
lovel=0
offset=499
sample=Clarinet_staccatissimo_PP_B5_RR7.opus
</region>

<region>
hivel=45
key=C#6
lovel=0
offset=1108
sample=Clarinet_staccatissimo_PP_C#6_RR7.opus
</region>

<region>
hivel=45
key=C6
lovel=0
offset=353
sample=Clarinet_staccatissimo_PP_C6_RR7.opus
</region>

<region>
hivel=45
key=D6
lovel=0
offset=1510
sample=Clarinet_staccatissimo_PP_D6_RR7.opus
</region>

<region>
hivel=45
key=G#5
lovel=0
sample=Clarinet_staccatissimo_PP_G#5_RR7.opus
</region>

<region>
hivel=45
key=G5
lovel=0
offset=873
sample=Clarinet_staccatissimo_PP_G5_RR7.opus
</region>

<region>
hivel=45
key=C#5
lovel=0
offset=567
sample=Clarinet_staccatissimo_PP_C#5_RR7.opus
</region>

<region>
hivel=45
key=C5
lovel=0
offset=257
sample=Clarinet_staccatissimo_PP_C5_RR7.opus
</region>

<region>
hivel=45
key=D#5
lovel=0
offset=842
sample=Clarinet_staccatissimo_PP_D#5_RR7.opus
</region>

<region>
hivel=45
key=D5
lovel=0
offset=512
sample=Clarinet_staccatissimo_PP_D5_RR7.opus
</region>

<region>
hivel=45
key=E5
lovel=0
offset=926
sample=Clarinet_staccatissimo_PP_E5_RR7.opus
</region>

<region>
hivel=45
key=F#5
lovel=0
offset=628
sample=Clarinet_staccatissimo_PP_F#5_RR7.opus
</region>

<region>
hivel=45
key=F5
lovel=0
offset=1596
sample=Clarinet_staccatissimo_PP_F5_RR7.opus
</region>

<region>
hivel=45
key=A#4
lovel=0
offset=142
sample=Clarinet_staccatissimo_PP_A#4_RR7.opus
</region>

<region>
hivel=45
key=A4
lovel=0
offset=711
sample=Clarinet_staccatissimo_PP_A4_RR7.opus
</region>

<region>
hivel=45
key=B4
lovel=0
offset=802
sample=Clarinet_staccatissimo_PP_B4_RR7.opus
</region>

<region>
hivel=45
key=G#4
lovel=0
offset=1499
sample=Clarinet_staccatissimo_PP_G#4_RR7.opus
</region>

<region>
hivel=45
key=G4
lovel=0
offset=873
sample=Clarinet_staccatissimo_PP_G4_RR7.opus
</region>

<region>
hivel=45
key=C#4
lovel=0
offset=1260
sample=Clarinet_staccatissimo_PP_C#4_RR7.opus
</region>

<region>
hivel=45
key=D#4
lovel=0
offset=766
sample=Clarinet_staccatissimo_PP_D#4_RR7.opus
</region>

<region>
hivel=45
key=D4
lovel=0
offset=518
sample=Clarinet_staccatissimo_PP_D4_RR7.opus
</region>

<region>
hivel=45
key=E4
lovel=0
offset=847
sample=Clarinet_staccatissimo_PP_E4_RR7.opus
</region>

<region>
hivel=45
key=F#4
lovel=0
offset=172
sample=Clarinet_staccatissimo_PP_F#4_RR7.opus
</region>

<region>
hivel=45
key=F4
lovel=0
offset=890
sample=Clarinet_staccatissimo_PP_F4_RR7.opus
</region>

<region>
hivel=45
key=A#3
lovel=0
offset=548
sample=Clarinet_staccatissimo_PP_A#3_RR7.opus
</region>

<region>
hivel=45
key=A3
lovel=0
offset=1491
sample=Clarinet_staccatissimo_PP_A3_RR7.opus
</region>

<region>
hivel=45
key=B3
lovel=0
offset=1081
sample=Clarinet_staccatissimo_PP_B3_RR7.opus
</region>

<region>
hivel=45
key=C4
lovel=0
offset=613
sample=Clarinet_staccatissimo_PP_C4_RR7.opus
</region>

<region>
hivel=45
key=G#3
lovel=0
offset=1605
sample=Clarinet_staccatissimo_PP_G#3_RR7.opus
</region>

<region>
hivel=45
key=G3
lovel=0
offset=3369
sample=Clarinet_staccatissimo_PP_G3_RR7.opus
</region>
</group>

<group>
group_label=RR8
seq_length=8
seq_position=8

<region>
hivel=127
key=C#6
lovel=91
offset=393
sample=Clarinet_staccatissimo_FF_C#6_RR8.opus
</region>

<region>
hivel=127
key=C6
lovel=91
offset=1116
sample=Clarinet_staccatissimo_FF_C6_RR8.opus
</region>

<region>
hivel=127
key=D#6
lovel=91
offset=254
sample=Clarinet_staccatissimo_FF_D#6_RR8.opus
</region>

<region>
hivel=127
key=D6
lovel=91
offset=1091
sample=Clarinet_staccatissimo_FF_D6_RR8.opus
</region>

<region>
hivel=127
key=E6
lovel=91
offset=690
sample=Clarinet_staccatissimo_FF_E6_RR8.opus
</region>

<region>
hivel=127
key=F#6
lovel=91
offset=315
sample=Clarinet_staccatissimo_FF_F#6_RR8.opus
</region>

<region>
hivel=127
key=F6
lovel=91
offset=654
sample=Clarinet_staccatissimo_FF_F6_RR8.opus
</region>

<region>
hikey=C7
hivel=127
lokey=G6
lovel=91
offset=405
pitch_keycenter=G6
sample=Clarinet_staccatissimo_FF_G6_RR8.opus
</region>

<region>
hivel=127
key=A#5
lovel=91
offset=553
sample=Clarinet_staccatissimo_FF_A#5_RR8.opus
</region>

<region>
hivel=127
key=A5
lovel=91
offset=879
sample=Clarinet_staccatissimo_FF_A5_RR8.opus
</region>

<region>
hivel=127
key=B5
lovel=91
offset=1007
sample=Clarinet_staccatissimo_FF_B5_RR8.opus
</region>

<region>
hivel=127
key=F#5
lovel=91
offset=700
sample=Clarinet_staccatissimo_FF_F#5_RR8.opus
</region>

<region>
hivel=127
key=F5
lovel=91
offset=972
sample=Clarinet_staccatissimo_FF_F5_RR8.opus
</region>

<region>
hivel=127
key=G#5
lovel=91
offset=665
sample=Clarinet_staccatissimo_FF_G#5_RR8.opus
</region>

<region>
hivel=127
key=G5
lovel=91
offset=1016
sample=Clarinet_staccatissimo_FF_G5_RR8.opus
</region>

<region>
hivel=127
key=B4
lovel=91
offset=723
sample=Clarinet_staccatissimo_FF_B4_RR8.opus
</region>

<region>
hivel=127
key=C#5
lovel=91
offset=629
sample=Clarinet_staccatissimo_FF_C#5_RR8.opus
</region>

<region>
hivel=127
key=C5
lovel=91
offset=518
sample=Clarinet_staccatissimo_FF_C5_RR8.opus
</region>

<region>
hivel=127
key=D#5
lovel=91
offset=906
sample=Clarinet_staccatissimo_FF_D#5_RR8.opus
</region>

<region>
hivel=127
key=D5
lovel=91
offset=948
sample=Clarinet_staccatissimo_FF_D5_RR8.opus
</region>

<region>
hivel=127
key=E5
lovel=91
offset=557
sample=Clarinet_staccatissimo_FF_E5_RR8.opus
</region>

<region>
hivel=127
key=A#4
lovel=91
offset=741
sample=Clarinet_staccatissimo_FF_A#4_RR8.opus
</region>

<region>
hivel=127
key=A4
lovel=91
offset=625
sample=Clarinet_staccatissimo_FF_A4_RR8.opus
</region>

<region>
hivel=127
key=F#4
lovel=91
offset=449
sample=Clarinet_staccatissimo_FF_F#4_RR8.opus
</region>

<region>
hivel=127
key=G#4
lovel=91
offset=834
sample=Clarinet_staccatissimo_FF_G#4_RR8.opus
</region>

<region>
hivel=127
key=G4
lovel=91
offset=490
sample=Clarinet_staccatissimo_FF_G4_RR8.opus
</region>

<region>
hivel=127
key=C#4
lovel=91
offset=599
sample=Clarinet_staccatissimo_FF_C#4_RR8.opus
</region>

<region>
hivel=127
key=C4
lovel=91
offset=465
sample=Clarinet_staccatissimo_FF_C4_RR8.opus
</region>

<region>
hivel=127
key=D#4
lovel=91
offset=483
sample=Clarinet_staccatissimo_FF_D#4_RR8.opus
</region>

<region>
hivel=127
key=D4
lovel=91
offset=525
sample=Clarinet_staccatissimo_FF_D4_RR8.opus
</region>

<region>
hivel=127
key=E4
lovel=91
offset=407
sample=Clarinet_staccatissimo_FF_E4_RR8.opus
</region>

<region>
hivel=127
key=F4
lovel=91
offset=259
sample=Clarinet_staccatissimo_FF_F4_RR8.opus
</region>

<region>
hivel=127
key=A#3
lovel=91
offset=4318
sample=Clarinet_staccatissimo_FF_A#3_RR8.opus
</region>

<region>
hivel=127
key=A3
lovel=91
offset=4359
sample=Clarinet_staccatissimo_FF_A3_RR8.opus
</region>

<region>
hivel=127
key=B3
lovel=91
offset=910
sample=Clarinet_staccatissimo_FF_B3_RR8.opus
</region>

<region>
hivel=127
key=G#3
lovel=91
offset=1418
sample=Clarinet_staccatissimo_FF_G#3_RR8.opus
</region>

<region>
hivel=127
key=G3
lovel=91
offset=2764
sample=Clarinet_staccatissimo_FF_G3_RR8.opus
</region>

<region>
hivel=90
key=D#6
lovel=46
offset=93
sample=Clarinet_staccatissimo_MF_D#6_RR8.opus
</region>

<region>
hivel=90
key=D6
lovel=46
offset=281
sample=Clarinet_staccatissimo_MF_D6_RR8.opus
</region>

<region>
hivel=90
key=E6
lovel=46
offset=892
sample=Clarinet_staccatissimo_MF_E6_RR8.opus
</region>

<region>
hivel=90
key=F#6
lovel=46
offset=1382
sample=Clarinet_staccatissimo_MF_F#6_RR8.opus
</region>

<region>
hivel=90
key=F6
lovel=46
offset=310
sample=Clarinet_staccatissimo_MF_F6_RR8.opus
</region>

<region>
hikey=C7
hivel=90
lokey=G6
lovel=46
offset=758
pitch_keycenter=G6
sample=Clarinet_staccatissimo_MF_G6_RR8.opus
</region>

<region>
hivel=90
key=A#5
lovel=46
offset=731
sample=Clarinet_staccatissimo_MF_A#5_RR8.opus
</region>

<region>
hivel=90
key=A5
lovel=46
offset=955
sample=Clarinet_staccatissimo_MF_A5_RR8.opus
</region>

<region>
hivel=90
key=B5
lovel=46
offset=1004
sample=Clarinet_staccatissimo_MF_B5_RR8.opus
</region>

<region>
hivel=90
key=C#6
lovel=46
offset=510
sample=Clarinet_staccatissimo_MF_C#6_RR8.opus
</region>

<region>
hivel=90
key=C6
lovel=46
offset=493
sample=Clarinet_staccatissimo_MF_C6_RR8.opus
</region>

<region>
hivel=90
key=F#5
lovel=46
offset=1487
sample=Clarinet_staccatissimo_MF_F#5_RR8.opus
</region>

<region>
hivel=90
key=G#5
lovel=46
offset=2383
sample=Clarinet_staccatissimo_MF_G#5_RR8.opus
</region>

<region>
hivel=90
key=G5
lovel=46
offset=611
sample=Clarinet_staccatissimo_MF_G5_RR8.opus
</region>

<region>
hivel=90
key=C#5
lovel=46
offset=487
sample=Clarinet_staccatissimo_MF_C#5_RR8.opus
</region>

<region>
hivel=90
key=D#5
lovel=46
offset=609
sample=Clarinet_staccatissimo_MF_D#5_RR8.opus
</region>

<region>
hivel=90
key=D5
lovel=46
offset=1538
sample=Clarinet_staccatissimo_MF_D5_RR8.opus
</region>

<region>
hivel=90
key=E5
lovel=46
offset=1236
sample=Clarinet_staccatissimo_MF_E5_RR8.opus
</region>

<region>
hivel=90
key=F5
lovel=46
offset=967
sample=Clarinet_staccatissimo_MF_F5_RR8.opus
</region>

<region>
hivel=90
key=B4
lovel=46
offset=1055
sample=Clarinet_staccatissimo_MF_B4_RR8.opus
</region>

<region>
hivel=90
key=C5
lovel=46
offset=347
sample=Clarinet_staccatissimo_MF_C5_RR8.opus
</region>

<region>
hivel=90
key=A#4
lovel=46
offset=465
sample=Clarinet_staccatissimo_MF_A#4_RR8.opus
</region>

<region>
hivel=90
key=A4
lovel=46
offset=723
sample=Clarinet_staccatissimo_MF_A4_RR8.opus
</region>

<region>
hivel=90
key=G#4
lovel=46
offset=917
sample=Clarinet_staccatissimo_MF_G#4_RR8.opus
</region>

<region>
hivel=90
key=G4
lovel=46
offset=645
sample=Clarinet_staccatissimo_MF_G4_RR8.opus
</region>

<region>
hivel=90
key=E4
lovel=46
offset=720
sample=Clarinet_staccatissimo_MF_E4_RR8.opus
</region>

<region>
hivel=90
key=F#4
lovel=46
offset=423
sample=Clarinet_staccatissimo_MF_F#4_RR8.opus
</region>

<region>
hivel=90
key=F4
lovel=46
offset=900
sample=Clarinet_staccatissimo_MF_F4_RR8.opus
</region>

<region>
hivel=90
key=C#4
lovel=46
offset=776
sample=Clarinet_staccatissimo_MF_C#4_RR8.opus
</region>

<region>
hivel=90
key=C4
lovel=46
offset=459
sample=Clarinet_staccatissimo_MF_C4_RR8.opus
</region>

<region>
hivel=90
key=D#4
lovel=46
offset=758
sample=Clarinet_staccatissimo_MF_D#4_RR8.opus
</region>

<region>
hivel=90
key=D4
lovel=46
offset=709
sample=Clarinet_staccatissimo_MF_D4_RR8.opus
</region>

<region>
hivel=90
key=A#3
lovel=46
offset=981
sample=Clarinet_staccatissimo_MF_A#3_RR8.opus
</region>

<region>
hivel=90
key=A3
lovel=46
offset=883
sample=Clarinet_staccatissimo_MF_A3_RR8.opus
</region>

<region>
hivel=90
key=B3
lovel=46
offset=893
sample=Clarinet_staccatissimo_MF_B3_RR8.opus
</region>

<region>
hivel=90
key=G#3
lovel=46
offset=912
sample=Clarinet_staccatissimo_MF_G#3_RR8.opus
</region>

<region>
hivel=90
key=G3
lovel=46
offset=1276
sample=Clarinet_staccatissimo_MF_G3_RR8.opus
</region>

<region>
hivel=45
key=D#6
lovel=0
offset=527
sample=Clarinet_staccatissimo_PP_D#6_RR8.opus
</region>

<region>
hivel=45
key=E6
lovel=0
offset=272
sample=Clarinet_staccatissimo_PP_E6_RR8.opus
</region>

<region>
hivel=45
key=F#6
lovel=0
offset=294
sample=Clarinet_staccatissimo_PP_F#6_RR8.opus
</region>

<region>
hivel=45
key=F6
lovel=0
offset=982
sample=Clarinet_staccatissimo_PP_F6_RR8.opus
</region>

<region>
hikey=C7
hivel=45
lokey=G6
lovel=0
offset=1235
pitch_keycenter=G6
sample=Clarinet_staccatissimo_PP_G6_RR8.opus
</region>

<region>
hivel=45
key=A#5
lovel=0
offset=768
sample=Clarinet_staccatissimo_PP_A#5_RR8.opus
</region>

<region>
hivel=45
key=A5
lovel=0
offset=395
sample=Clarinet_staccatissimo_PP_A5_RR8.opus
</region>

<region>
hivel=45
key=B5
lovel=0
offset=496
sample=Clarinet_staccatissimo_PP_B5_RR8.opus
</region>

<region>
hivel=45
key=C#6
lovel=0
offset=1070
sample=Clarinet_staccatissimo_PP_C#6_RR8.opus
</region>

<region>
hivel=45
key=C6
lovel=0
offset=676
sample=Clarinet_staccatissimo_PP_C6_RR8.opus
</region>

<region>
hivel=45
key=D6
lovel=0
offset=1076
sample=Clarinet_staccatissimo_PP_D6_RR8.opus
</region>

<region>
hivel=45
key=G#5
lovel=0
offset=975
sample=Clarinet_staccatissimo_PP_G#5_RR8.opus
</region>

<region>
hivel=45
key=G5
lovel=0
offset=626
sample=Clarinet_staccatissimo_PP_G5_RR8.opus
</region>

<region>
hivel=45
key=C#5
lovel=0
offset=617
sample=Clarinet_staccatissimo_PP_C#5_RR8.opus
</region>

<region>
hivel=45
key=C5
lovel=0
offset=627
sample=Clarinet_staccatissimo_PP_C5_RR8.opus
</region>

<region>
hivel=45
key=D#5
lovel=0
offset=380
sample=Clarinet_staccatissimo_PP_D#5_RR8.opus
</region>

<region>
hivel=45
key=D5
lovel=0
offset=258
sample=Clarinet_staccatissimo_PP_D5_RR8.opus
</region>

<region>
hivel=45
key=E5
lovel=0
offset=1767
sample=Clarinet_staccatissimo_PP_E5_RR8.opus
</region>

<region>
hivel=45
key=F#5
lovel=0
offset=169
sample=Clarinet_staccatissimo_PP_F#5_RR8.opus
</region>

<region>
hivel=45
key=F5
lovel=0
offset=1196
sample=Clarinet_staccatissimo_PP_F5_RR8.opus
</region>

<region>
hivel=45
key=A#4
lovel=0
offset=770
sample=Clarinet_staccatissimo_PP_A#4_RR8.opus
</region>

<region>
hivel=45
key=A4
lovel=0
offset=608
sample=Clarinet_staccatissimo_PP_A4_RR8.opus
</region>

<region>
hivel=45
key=B4
lovel=0
offset=706
sample=Clarinet_staccatissimo_PP_B4_RR8.opus
</region>

<region>
hivel=45
key=G#4
lovel=0
offset=1269
sample=Clarinet_staccatissimo_PP_G#4_RR8.opus
</region>

<region>
hivel=45
key=G4
lovel=0
offset=878
sample=Clarinet_staccatissimo_PP_G4_RR8.opus
</region>

<region>
hivel=45
key=C#4
lovel=0
offset=1238
sample=Clarinet_staccatissimo_PP_C#4_RR8.opus
</region>

<region>
hivel=45
key=D#4
lovel=0
offset=611
sample=Clarinet_staccatissimo_PP_D#4_RR8.opus
</region>

<region>
hivel=45
key=D4
lovel=0
offset=974
sample=Clarinet_staccatissimo_PP_D4_RR8.opus
</region>

<region>
hivel=45
key=E4
lovel=0
offset=1014
sample=Clarinet_staccatissimo_PP_E4_RR8.opus
</region>

<region>
hivel=45
key=F#4
lovel=0
sample=Clarinet_staccatissimo_PP_F#4_RR8.opus
</region>

<region>
hivel=45
key=F4
lovel=0
offset=74
sample=Clarinet_staccatissimo_PP_F4_RR8.opus
</region>

<region>
hivel=45
key=A#3
lovel=0
offset=765
sample=Clarinet_staccatissimo_PP_A#3_RR8.opus
</region>

<region>
hivel=45
key=A3
lovel=0
offset=1268
sample=Clarinet_staccatissimo_PP_A3_RR8.opus
</region>

<region>
hivel=45
key=B3
lovel=0
offset=1075
sample=Clarinet_staccatissimo_PP_B3_RR8.opus
</region>

<region>
hivel=45
key=C4
lovel=0
offset=631
sample=Clarinet_staccatissimo_PP_C4_RR8.opus
</region>

<region>
hivel=45
key=G#3
lovel=0
offset=2554
sample=Clarinet_staccatissimo_PP_G#3_RR8.opus
</region>

<region>
hivel=45
key=G3
lovel=0
offset=2459
sample=Clarinet_staccatissimo_PP_G3_RR8.opus
</region>
</group>